<svg id="svg" xmlns="http://www.w3.org/2000/svg" xmlns:xlink="http://www.w3.org/1999/xlink" width="400" height="400" viewBox="0, 0, 400,400"><g id="svgg"><path id="path0" d="M195.875 9.855 C 195.785 9.944,193.152 10.135,190.024 10.278 C 186.526 10.438,184.200 10.675,183.981 10.894 C 183.768 11.107,182.486 11.253,180.797 11.257 C 179.241 11.262,177.406 11.407,176.719 11.582 C 176.031 11.756,174.414 12.025,173.125 12.179 C 171.836 12.334,169.586 12.683,168.125 12.956 C 166.664 13.229,164.674 13.573,163.703 13.720 C 162.732 13.867,161.748 14.105,161.516 14.250 C 161.284 14.394,160.391 14.612,159.531 14.734 C 157.538 15.016,154.809 15.712,154.505 16.016 C 154.376 16.145,153.978 16.249,153.620 16.248 C 153.262 16.248,152.336 16.443,151.563 16.683 C 150.789 16.923,149.434 17.346,148.552 17.622 C 147.669 17.899,146.658 18.125,146.305 18.125 C 145.951 18.125,145.583 18.253,145.486 18.410 C 145.389 18.567,144.712 18.794,143.983 18.914 C 143.253 19.035,142.516 19.239,142.344 19.369 C 141.932 19.680,138.232 20.938,137.733 20.937 C 137.519 20.936,136.781 21.207,136.094 21.539 C 135.406 21.872,133.719 22.591,132.344 23.137 C 129.034 24.453,128.932 24.496,126.463 25.605 C 125.290 26.132,124.282 26.563,124.222 26.563 C 124.162 26.563,122.777 27.195,121.144 27.969 C 119.511 28.742,118.023 29.375,117.837 29.375 C 117.652 29.375,117.500 29.481,117.500 29.611 C 117.500 29.741,117.113 30.006,116.641 30.200 C 116.168 30.394,115.570 30.641,115.313 30.749 C 115.055 30.857,114.281 31.266,113.594 31.657 C 112.906 32.048,111.430 32.855,110.313 33.450 C 109.195 34.045,108.211 34.616,108.125 34.721 C 107.931 34.955,104.229 37.177,102.972 37.813 C 101.873 38.368,91.476 45.290,91.250 45.616 C 91.079 45.863,86.013 49.375,85.827 49.375 C 85.764 49.375,85.190 49.868,84.552 50.470 C 83.913 51.072,82.733 52.006,81.930 52.545 C 81.126 53.084,79.977 53.989,79.375 54.555 C 78.773 55.120,76.752 56.964,74.883 58.651 C 68.602 64.321,59.257 73.934,56.624 77.434 C 56.228 77.960,55.482 78.858,54.965 79.430 C 54.449 80.001,53.789 80.820,53.499 81.250 C 53.007 81.978,51.714 83.517,50.625 84.670 C 50.367 84.943,49.453 86.216,48.594 87.498 C 47.734 88.781,46.706 90.185,46.308 90.619 C 45.910 91.052,45.363 91.828,45.092 92.344 C 44.822 92.859,44.513 93.352,44.407 93.438 C 44.072 93.709,41.250 98.055,41.250 98.300 C 41.250 98.429,40.919 98.970,40.515 99.502 C 40.111 100.034,39.529 100.961,39.221 101.563 C 38.914 102.164,38.555 102.727,38.424 102.813 C 38.293 102.898,37.715 103.884,37.140 105.003 C 36.564 106.122,35.799 107.458,35.438 107.972 C 35.077 108.486,33.793 110.875,32.584 113.281 C 31.375 115.688,30.165 118.078,29.895 118.594 C 29.251 119.823,27.694 123.303,27.169 124.688 C 26.940 125.289,26.429 126.400,26.033 127.156 C 25.637 127.912,25.313 128.734,25.313 128.984 C 25.313 129.233,25.119 129.880,24.883 130.422 C 23.770 132.976,22.535 136.226,22.195 137.500 C 21.989 138.273,21.644 139.328,21.428 139.844 C 20.782 141.384,20.267 142.902,19.995 144.063 C 19.854 144.664,19.254 146.773,18.661 148.750 C 17.494 152.640,17.275 153.473,16.120 158.438 C 15.078 162.917,14.224 167.560,13.620 172.031 C 13.342 174.094,12.970 176.625,12.795 177.656 C 11.399 185.859,11.394 216.392,12.788 221.712 C 12.969 222.403,13.332 225.016,13.595 227.519 C 13.857 230.021,14.225 232.552,14.411 233.144 C 14.598 233.735,14.801 234.922,14.864 235.781 C 14.926 236.641,15.186 238.047,15.442 238.906 C 15.698 239.766,16.134 241.594,16.410 242.969 C 17.022 246.014,17.435 247.791,18.008 249.844 C 18.712 252.363,20.540 258.396,21.396 261.028 C 21.831 262.366,22.188 263.603,22.188 263.777 C 22.188 263.951,22.469 264.675,22.813 265.386 C 23.156 266.098,23.437 266.807,23.437 266.961 C 23.437 267.116,23.859 268.154,24.375 269.268 C 24.891 270.382,25.312 271.407,25.312 271.545 C 25.313 271.826,26.180 273.881,27.520 276.772 C 28.011 277.832,28.504 279.064,28.616 279.509 C 28.728 279.954,28.944 280.396,29.097 280.490 C 29.250 280.585,29.375 280.918,29.375 281.230 C 29.375 281.543,29.586 281.974,29.844 282.188 C 30.102 282.401,30.312 282.865,30.312 283.217 C 30.312 283.569,30.506 284.079,30.743 284.350 C 30.980 284.622,31.988 286.391,32.983 288.281 C 35.111 292.322,35.365 292.784,36.593 294.844 C 37.106 295.703,37.674 296.793,37.855 297.266 C 38.037 297.738,38.313 298.125,38.468 298.125 C 38.623 298.125,38.750 298.288,38.750 298.488 C 38.750 298.909,40.653 301.981,41.010 302.135 C 41.142 302.193,41.250 302.427,41.250 302.656 C 41.250 302.885,41.366 303.120,41.509 303.177 C 41.651 303.234,42.526 304.477,43.453 305.938 C 44.380 307.398,45.301 308.734,45.500 308.906 C 45.699 309.078,46.594 310.309,47.489 311.641 C 48.385 312.973,49.246 314.062,49.402 314.063 C 49.559 314.063,49.688 314.245,49.688 314.468 C 49.688 314.900,50.362 315.891,51.446 317.052 C 51.811 317.443,52.442 318.231,52.847 318.804 C 53.253 319.376,53.819 320.125,54.105 320.469 C 54.391 320.813,55.209 321.797,55.923 322.656 C 56.637 323.516,57.600 324.641,58.064 325.157 C 58.527 325.673,59.609 326.938,60.468 327.969 C 62.567 330.488,69.718 337.603,73.757 341.189 C 75.558 342.788,77.734 344.726,78.594 345.495 C 79.453 346.265,80.999 347.558,82.028 348.369 C 83.057 349.180,84.251 350.160,84.681 350.547 C 85.111 350.934,85.576 351.250,85.715 351.250 C 85.854 351.250,86.277 351.571,86.656 351.964 C 87.687 353.035,89.886 354.688,90.279 354.688 C 90.469 354.688,90.625 354.800,90.625 354.938 C 90.625 355.075,91.265 355.593,92.048 356.087 C 92.830 356.582,93.766 357.243,94.127 357.556 C 94.488 357.869,94.908 358.125,95.061 358.125 C 95.215 358.125,95.719 358.477,96.182 358.906 C 96.646 359.336,97.195 359.687,97.403 359.687 C 97.610 359.687,98.151 360.031,98.604 360.451 C 99.057 360.871,99.968 361.496,100.629 361.840 C 102.502 362.817,103.268 363.264,103.438 363.481 C 103.523 363.592,104.156 363.988,104.844 364.362 C 105.531 364.736,106.516 365.313,107.031 365.643 C 107.547 365.973,108.173 366.341,108.422 366.460 C 108.671 366.580,109.759 367.214,110.838 367.870 C 111.918 368.526,113.073 369.063,113.406 369.063 C 113.738 369.062,114.057 369.184,114.115 369.333 C 114.232 369.638,118.019 371.563,118.502 371.563 C 118.675 371.563,119.441 371.984,120.205 372.500 C 120.969 373.016,121.692 373.439,121.813 373.440 C 121.933 373.442,122.734 373.789,123.594 374.212 C 124.453 374.635,125.407 374.985,125.713 374.990 C 126.019 374.996,126.351 375.211,126.449 375.469 C 126.548 375.727,126.889 375.938,127.206 375.938 C 127.758 375.937,128.403 376.157,130.469 377.049 C 130.984 377.272,131.920 377.675,132.547 377.946 C 133.175 378.216,133.909 378.438,134.178 378.438 C 134.448 378.438,135.130 378.696,135.694 379.013 C 136.257 379.329,137.773 379.909,139.063 380.301 C 140.352 380.693,141.540 381.137,141.703 381.288 C 141.866 381.439,142.297 381.563,142.659 381.563 C 143.021 381.562,143.591 381.769,143.925 382.021 C 144.258 382.274,145.023 382.489,145.625 382.500 C 146.227 382.511,146.992 382.726,147.325 382.979 C 147.659 383.231,148.319 383.438,148.791 383.438 C 149.264 383.438,149.726 383.560,149.818 383.709 C 149.911 383.858,150.558 384.072,151.257 384.184 C 151.956 384.295,152.767 384.509,153.061 384.659 C 153.952 385.115,157.037 385.938,157.856 385.938 C 158.279 385.938,158.759 386.066,158.922 386.223 C 159.221 386.510,161.564 386.978,165.313 387.501 C 166.430 387.656,167.835 387.931,168.435 388.111 C 169.036 388.290,170.238 388.438,171.107 388.438 C 171.976 388.438,172.855 388.605,173.060 388.810 C 173.272 389.022,174.679 389.239,176.326 389.315 C 177.917 389.388,179.375 389.573,179.565 389.725 C 179.756 389.878,181.289 390.085,182.972 390.184 C 184.655 390.283,186.363 390.490,186.767 390.643 C 187.567 390.948,215.756 391.087,216.238 390.789 C 216.518 390.616,221.472 390.027,228.223 389.364 C 229.910 389.199,231.553 388.922,231.874 388.750 C 232.196 388.578,233.067 388.437,233.810 388.437 C 234.553 388.437,235.652 388.285,236.252 388.100 C 236.852 387.914,238.188 387.640,239.219 387.491 C 242.282 387.049,243.865 386.700,244.589 386.308 C 244.964 386.104,245.808 385.933,246.464 385.928 C 247.120 385.923,249.273 385.421,251.250 384.812 C 253.227 384.203,255.269 383.596,255.789 383.464 C 256.308 383.331,257.037 383.060,257.409 382.861 C 257.780 382.663,258.440 382.500,258.875 382.500 C 259.581 382.500,261.011 382.002,262.574 381.212 C 262.872 381.061,263.382 380.938,263.707 380.938 C 264.033 380.938,264.474 380.727,264.688 380.469 C 264.909 380.202,265.590 380.000,266.270 380.000 C 266.926 380.000,267.540 379.876,267.633 379.725 C 267.727 379.574,268.543 379.209,269.448 378.914 C 270.353 378.619,271.727 378.102,272.500 377.766 C 275.089 376.639,275.464 376.477,276.406 376.082 C 277.831 375.484,281.025 374.043,281.636 373.722 C 281.935 373.566,282.315 373.438,282.482 373.438 C 282.649 373.437,283.500 373.016,284.375 372.500 C 285.250 371.984,286.173 371.563,286.426 371.562 C 286.680 371.562,287.444 371.211,288.125 370.781 C 288.806 370.352,289.559 370.000,289.799 370.000 C 290.039 370.000,290.411 369.789,290.625 369.531 C 290.839 369.273,291.243 369.056,291.523 369.049 C 291.802 369.041,292.594 368.688,293.281 368.263 C 293.969 367.838,294.777 367.406,295.078 367.302 C 295.379 367.199,295.625 366.990,295.625 366.839 C 295.625 366.687,295.815 366.563,296.047 366.563 C 296.279 366.563,297.020 366.176,297.695 365.703 C 298.369 365.230,299.410 364.573,300.007 364.242 C 300.605 363.911,301.164 363.560,301.250 363.461 C 301.336 363.362,301.969 363.001,302.656 362.659 C 303.344 362.317,303.977 361.955,304.063 361.854 C 304.148 361.754,304.711 361.401,305.313 361.070 C 305.914 360.739,306.519 360.293,306.656 360.078 C 306.794 359.863,307.227 359.688,307.619 359.688 C 308.054 359.687,308.490 359.392,308.737 358.930 C 308.960 358.513,309.441 358.094,309.806 357.999 C 310.170 357.903,311.383 357.124,312.500 356.267 C 313.617 355.411,314.652 354.705,314.800 354.699 C 315.044 354.689,315.503 354.316,317.219 352.734 C 317.546 352.434,317.953 352.188,318.125 352.188 C 318.297 352.188,318.438 351.977,318.438 351.719 C 318.438 351.461,318.574 351.250,318.741 351.250 C 319.168 351.250,321.875 349.308,321.875 349.002 C 321.875 348.864,322.085 348.750,322.341 348.750 C 322.597 348.750,322.983 348.469,323.198 348.125 C 323.412 347.781,323.732 347.500,323.908 347.500 C 324.084 347.500,325.137 346.636,326.247 345.579 C 328.876 343.078,332.455 340.001,332.742 339.996 C 332.867 339.993,333.531 339.297,334.219 338.449 C 334.906 337.600,335.571 336.899,335.697 336.891 C 335.822 336.882,336.525 336.219,337.259 335.417 C 337.993 334.614,339.551 333.032,340.721 331.901 C 341.890 330.769,343.571 328.932,344.455 327.817 C 345.340 326.703,346.508 325.346,347.052 324.802 C 347.595 324.259,348.505 323.167,349.073 322.376 C 349.641 321.585,350.223 320.938,350.365 320.938 C 350.508 320.938,350.625 320.786,350.625 320.601 C 350.625 320.416,351.047 319.843,351.563 319.327 C 352.078 318.811,352.500 318.271,352.500 318.126 C 352.500 317.982,353.063 317.278,353.750 316.563 C 354.438 315.847,355.000 315.187,355.000 315.096 C 355.000 315.005,355.703 313.964,356.563 312.783 C 357.422 311.601,358.125 310.492,358.125 310.317 C 358.125 310.143,358.239 310.000,358.377 310.000 C 358.630 310.000,360.625 307.328,360.625 306.989 C 360.625 306.890,361.049 306.274,361.566 305.620 C 362.084 304.966,362.687 304.102,362.906 303.700 C 363.125 303.298,363.826 302.167,364.464 301.187 C 365.103 300.207,365.625 299.268,365.625 299.100 C 365.625 298.932,365.801 298.603,366.016 298.370 C 366.445 297.902,366.560 297.707,368.269 294.531 C 368.917 293.328,369.545 292.273,369.665 292.188 C 369.926 292.001,374.498 283.035,375.561 280.625 C 376.012 279.602,376.213 279.122,377.191 276.719 C 377.401 276.203,377.698 275.570,377.851 275.313 C 378.004 275.055,378.209 274.633,378.306 274.375 C 378.403 274.117,378.684 273.444,378.929 272.880 C 379.174 272.316,379.375 271.648,379.375 271.396 C 379.375 271.144,379.516 270.938,379.688 270.938 C 379.859 270.938,380.000 270.582,380.000 270.146 C 380.000 269.711,380.211 269.274,380.469 269.176 C 380.727 269.077,380.938 268.617,380.938 268.154 C 380.938 267.691,381.060 267.179,381.210 267.016 C 381.360 266.852,381.720 265.875,382.010 264.844 C 382.301 263.813,382.741 262.571,382.988 262.084 C 383.235 261.597,383.437 260.886,383.438 260.503 C 383.438 260.120,383.644 259.534,383.896 259.200 C 384.149 258.867,384.360 258.235,384.365 257.797 C 384.371 257.359,384.508 256.866,384.670 256.703 C 384.959 256.411,385.376 254.957,385.960 252.200 C 386.123 251.434,386.395 250.668,386.565 250.497 C 386.736 250.327,386.875 249.752,386.875 249.219 C 386.875 248.686,387.000 248.116,387.153 247.953 C 387.306 247.790,387.593 246.813,387.790 245.781 C 387.988 244.750,388.275 243.248,388.428 242.443 C 388.581 241.638,388.856 240.698,389.040 240.354 C 389.224 240.010,389.375 239.104,389.375 238.341 C 389.375 237.578,389.586 236.356,389.844 235.625 C 390.102 234.894,390.313 233.619,390.313 232.792 C 390.313 231.964,390.453 231.200,390.625 231.094 C 390.797 230.988,390.946 230.241,390.956 229.435 C 390.966 228.628,391.117 227.266,391.290 226.406 C 391.463 225.547,391.735 223.114,391.894 221.000 C 392.052 218.886,392.324 216.891,392.497 216.567 C 392.940 215.741,392.923 188.013,392.479 186.560 C 392.296 185.960,392.023 183.711,391.872 181.563 C 391.629 178.085,391.374 175.886,390.351 168.438 C 390.198 167.320,389.915 166.010,389.724 165.527 C 389.532 165.043,389.375 164.111,389.375 163.456 C 389.375 162.802,389.164 161.668,388.906 160.937 C 388.648 160.207,388.438 159.213,388.438 158.729 C 388.438 158.245,388.297 157.762,388.125 157.656 C 387.953 157.550,387.813 157.067,387.813 156.583 C 387.813 156.099,387.602 155.106,387.344 154.375 C 387.086 153.644,386.875 152.729,386.875 152.340 C 386.875 151.952,386.665 151.231,386.408 150.739 C 386.151 150.247,385.940 149.534,385.939 149.155 C 385.938 148.777,385.815 148.144,385.665 147.749 C 385.516 147.354,385.146 146.188,384.843 145.156 C 384.540 144.125,384.100 142.838,383.865 142.297 C 383.630 141.755,383.438 141.045,383.438 140.718 C 383.438 140.392,383.312 139.991,383.160 139.828 C 383.007 139.665,382.650 138.688,382.368 137.656 C 381.807 135.613,381.115 133.748,380.435 132.452 C 380.196 131.996,380.000 131.420,380.000 131.172 C 380.000 130.767,379.457 129.417,378.770 128.115 C 378.631 127.851,378.418 127.183,378.296 126.630 C 378.175 126.077,377.946 125.625,377.788 125.625 C 377.629 125.625,377.499 125.379,377.498 125.078 C 377.497 124.777,377.305 124.180,377.072 123.750 C 376.514 122.724,375.644 120.979,372.360 114.299 C 370.860 111.249,369.505 108.674,369.348 108.577 C 369.191 108.480,369.063 108.192,369.063 107.937 C 369.063 107.681,368.711 107.094,368.281 106.630 C 367.852 106.167,367.500 105.548,367.500 105.256 C 367.500 104.964,367.374 104.646,367.220 104.551 C 366.637 104.191,365.609 101.793,365.791 101.219 C 365.922 100.808,365.829 100.625,365.490 100.625 C 365.220 100.625,365.000 100.518,365.000 100.387 C 365.000 100.257,364.614 99.734,364.143 99.225 C 363.671 98.717,363.033 97.830,362.724 97.254 C 362.416 96.678,361.466 95.248,360.613 94.076 C 359.760 92.903,359.063 91.783,359.063 91.587 C 359.063 91.391,358.852 91.149,358.594 91.051 C 358.336 90.952,358.125 90.730,358.125 90.558 C 358.125 90.218,356.245 87.721,355.862 87.552 C 355.732 87.495,355.625 87.302,355.625 87.125 C 355.625 86.792,354.352 85.159,352.969 83.716 C 352.539 83.267,352.188 82.752,352.188 82.570 C 352.188 82.388,352.081 82.193,351.951 82.135 C 351.821 82.078,351.229 81.398,350.636 80.625 C 350.043 79.852,349.200 78.841,348.763 78.380 C 348.326 77.918,347.828 77.356,347.656 77.130 C 347.232 76.572,343.851 72.642,342.500 71.136 C 340.810 69.253,330.662 59.291,328.880 57.766 C 328.006 57.018,326.881 56.056,326.380 55.627 C 325.879 55.198,323.852 53.548,321.875 51.959 C 319.898 50.370,317.727 48.611,317.050 48.051 C 316.373 47.490,315.670 46.961,315.487 46.875 C 314.802 46.552,312.314 44.817,311.566 44.141 C 311.138 43.754,310.622 43.437,310.420 43.438 C 310.218 43.438,310.005 43.331,309.948 43.201 C 309.792 42.847,307.423 41.070,306.812 40.849 C 306.519 40.743,304.902 39.770,303.218 38.687 C 301.534 37.605,299.734 36.512,299.219 36.260 C 298.703 36.007,297.719 35.427,297.031 34.972 C 296.344 34.516,294.516 33.476,292.969 32.660 C 291.422 31.844,289.423 30.783,288.527 30.301 C 287.632 29.819,286.577 29.323,286.184 29.198 C 285.790 29.073,284.906 28.605,284.219 28.158 C 283.531 27.711,282.828 27.331,282.656 27.315 C 282.484 27.298,281.922 27.119,281.406 26.915 C 280.453 26.540,279.928 26.306,276.875 24.896 C 272.514 22.882,259.018 18.125,257.667 18.125 C 257.300 18.125,256.866 17.999,256.703 17.845 C 256.433 17.590,253.628 16.779,250.000 15.908 C 249.227 15.722,247.961 15.371,247.188 15.127 C 246.414 14.884,245.456 14.685,245.058 14.686 C 244.660 14.687,244.073 14.548,243.754 14.377 C 243.435 14.207,242.284 13.923,241.197 13.748 C 240.109 13.573,238.094 13.214,236.719 12.950 C 235.344 12.687,233.164 12.350,231.875 12.201 C 230.586 12.052,228.898 11.784,228.125 11.604 C 224.109 10.671,196.553 9.176,195.875 9.855 M212.078 28.141 C 212.259 28.322,214.572 28.602,217.219 28.765 C 223.525 29.151,226.829 29.520,227.911 29.957 C 228.395 30.153,229.597 30.313,230.583 30.313 C 231.569 30.313,232.527 30.465,232.714 30.651 C 232.900 30.838,233.948 31.059,235.042 31.144 C 236.136 31.228,237.313 31.414,237.656 31.557 C 238.638 31.966,242.569 32.814,243.480 32.813 C 243.933 32.813,244.706 33.023,245.199 33.279 C 245.691 33.536,246.349 33.747,246.660 33.748 C 247.320 33.750,250.220 34.600,251.011 35.023 C 251.310 35.182,251.988 35.313,252.518 35.313 C 253.048 35.313,253.693 35.523,253.951 35.781 C 254.209 36.039,254.820 36.250,255.309 36.250 C 255.798 36.250,256.245 36.361,256.302 36.498 C 256.359 36.634,257.391 37.046,258.594 37.414 C 261.272 38.233,262.592 38.699,264.219 39.401 C 264.906 39.697,266.155 40.235,266.993 40.595 C 267.831 40.955,268.780 41.250,269.102 41.250 C 269.424 41.250,269.688 41.391,269.688 41.563 C 269.688 41.734,269.863 41.875,270.078 41.875 C 270.293 41.875,271.734 42.497,273.281 43.258 C 284.070 48.562,286.374 49.748,286.510 50.068 C 286.568 50.202,286.804 50.313,287.035 50.313 C 287.266 50.312,287.648 50.488,287.883 50.703 C 288.283 51.069,288.779 51.362,291.328 52.734 C 291.886 53.035,292.414 53.360,292.500 53.456 C 292.586 53.552,293.781 54.321,295.156 55.164 C 296.531 56.007,297.727 56.776,297.813 56.874 C 297.898 56.972,298.742 57.535,299.688 58.125 C 300.633 58.715,301.477 59.284,301.563 59.388 C 301.648 59.493,302.633 60.190,303.750 60.938 C 304.867 61.685,305.852 62.382,305.938 62.487 C 306.023 62.592,306.797 63.235,307.656 63.917 C 308.516 64.599,309.289 65.235,309.375 65.331 C 309.461 65.427,309.836 65.713,310.208 65.966 C 310.914 66.448,314.203 69.279,315.620 70.625 C 316.072 71.055,317.067 71.924,317.830 72.557 C 321.408 75.521,324.773 79.014,324.568 79.549 C 324.394 80.003,324.436 80.026,324.837 79.693 C 325.162 79.423,325.313 79.409,325.313 79.649 C 325.313 79.842,325.523 80.000,325.781 80.000 C 326.039 80.000,326.250 80.109,326.250 80.241 C 326.250 80.374,326.900 81.182,327.695 82.038 C 328.490 82.894,330.261 84.895,331.629 86.484 C 332.998 88.074,334.246 89.375,334.403 89.375 C 334.559 89.375,334.688 89.586,334.688 89.844 C 334.688 90.102,334.793 90.313,334.922 90.314 C 335.051 90.315,335.714 91.089,336.397 92.033 C 337.079 92.977,337.747 93.750,337.881 93.750 C 338.015 93.750,338.125 93.949,338.125 94.193 C 338.125 94.436,338.244 94.682,338.388 94.740 C 338.533 94.797,339.534 96.039,340.611 97.500 C 341.689 98.961,342.660 100.227,342.770 100.313 C 342.879 100.398,343.239 100.961,343.570 101.563 C 343.900 102.164,344.471 102.941,344.837 103.288 C 345.204 103.636,345.589 104.142,345.693 104.414 C 345.797 104.686,346.559 105.948,347.386 107.220 C 349.192 109.998,349.593 110.640,349.889 111.235 C 350.013 111.484,350.652 112.571,351.307 113.651 C 351.963 114.730,352.500 115.684,352.500 115.770 C 352.500 115.856,353.063 116.846,353.750 117.969 C 354.438 119.092,355.000 120.152,355.000 120.324 C 355.000 120.496,355.352 121.194,355.781 121.875 C 356.211 122.556,356.562 123.210,356.563 123.329 C 356.563 123.447,356.747 123.767,356.973 124.038 C 357.198 124.309,357.637 125.164,357.947 125.938 C 358.492 127.298,358.839 128.076,360.906 132.579 C 361.439 133.740,361.875 134.831,361.875 135.005 C 361.875 135.327,361.997 135.614,362.916 137.447 C 363.203 138.020,363.438 138.750,363.438 139.069 C 363.438 139.389,363.567 139.731,363.726 139.829 C 363.885 139.927,364.109 140.437,364.224 140.962 C 364.340 141.487,364.631 142.294,364.871 142.755 C 365.112 143.217,365.310 143.771,365.311 143.989 C 365.312 144.206,365.436 144.628,365.586 144.926 C 365.737 145.225,366.102 146.313,366.399 147.344 C 366.695 148.375,367.047 149.435,367.180 149.700 C 367.314 149.964,367.523 150.772,367.645 151.495 C 367.767 152.218,367.995 152.889,368.152 152.986 C 368.309 153.083,368.438 153.619,368.438 154.177 C 368.438 154.736,368.644 155.466,368.896 155.800 C 369.149 156.133,369.360 156.846,369.365 157.384 C 369.371 157.921,369.586 158.866,369.844 159.483 C 370.102 160.100,370.313 161.023,370.313 161.534 C 370.313 162.045,370.453 162.550,370.625 162.656 C 370.797 162.762,370.938 163.408,370.938 164.091 C 370.938 164.774,371.148 165.837,371.406 166.454 C 371.664 167.071,371.875 168.158,371.875 168.868 C 371.875 169.579,372.024 170.652,372.205 171.252 C 372.387 171.852,372.670 173.469,372.834 174.844 C 372.998 176.219,373.348 179.031,373.613 181.094 C 373.877 183.156,374.211 187.516,374.356 190.781 C 374.501 194.047,374.775 197.633,374.964 198.750 C 375.210 200.199,375.215 201.722,374.983 204.064 C 374.804 205.869,374.530 209.877,374.374 212.970 C 374.218 216.063,373.884 220.070,373.632 221.875 C 372.605 229.235,372.458 230.119,372.173 230.653 C 372.009 230.959,371.875 232.034,371.875 233.042 C 371.875 234.050,371.730 235.020,371.552 235.198 C 371.374 235.376,371.098 236.213,370.939 237.058 C 370.780 237.902,370.516 239.297,370.352 240.156 C 370.188 241.016,369.901 242.115,369.714 242.598 C 369.528 243.082,369.375 243.961,369.375 244.552 C 369.375 245.142,369.241 245.625,369.077 245.625 C 368.913 245.625,368.692 246.152,368.585 246.797 C 368.479 247.441,368.273 248.250,368.126 248.594 C 367.980 248.938,367.625 250.063,367.338 251.094 C 367.051 252.125,366.632 253.461,366.406 254.063 C 366.181 254.664,365.759 255.965,365.469 256.953 C 365.179 257.941,364.815 258.828,364.659 258.924 C 364.503 259.021,364.375 259.393,364.375 259.753 C 364.375 260.112,364.041 261.124,363.632 262.000 C 363.223 262.877,362.638 264.297,362.331 265.156 C 362.024 266.016,361.320 267.703,360.767 268.906 C 360.214 270.109,359.381 272.008,358.916 273.125 C 358.451 274.242,357.750 275.719,357.358 276.406 C 356.966 277.094,355.818 279.250,354.807 281.198 C 353.796 283.145,352.828 284.974,352.656 285.262 C 352.484 285.550,351.804 286.743,351.145 287.913 C 350.486 289.084,349.185 291.153,348.254 292.512 C 347.324 293.870,346.563 295.073,346.563 295.184 C 346.563 295.295,346.176 295.845,345.703 296.405 C 345.230 296.966,344.160 298.506,343.324 299.829 C 342.489 301.151,341.126 303.102,340.295 304.163 C 339.464 305.225,338.179 306.864,337.439 307.805 C 336.699 308.746,335.883 309.787,335.625 310.118 C 335.367 310.448,334.945 310.945,334.688 311.221 C 334.430 311.497,333.369 312.706,332.330 313.908 C 331.292 315.110,330.026 316.529,329.518 317.061 C 325.133 321.648,325.191 321.599,324.382 321.417 C 323.614 321.245,323.610 321.253,324.219 321.734 C 324.835 322.220,324.830 322.238,323.906 323.014 C 322.656 324.064,321.489 325.144,321.039 325.667 C 320.416 326.392,318.358 328.257,317.636 328.750 C 317.078 329.131,313.482 332.262,312.061 333.604 C 311.873 333.782,311.227 334.267,310.625 334.683 C 310.023 335.098,309.461 335.528,309.375 335.637 C 309.171 335.896,304.801 339.070,303.602 339.830 C 303.091 340.154,302.387 340.686,302.039 341.012 C 301.691 341.338,300.422 342.248,299.219 343.035 C 293.650 346.678,292.649 347.359,292.552 347.578 C 292.495 347.707,292.249 347.813,292.005 347.813 C 291.762 347.813,291.563 347.953,291.563 348.125 C 291.563 348.297,291.408 348.438,291.218 348.438 C 291.029 348.437,289.517 349.260,287.859 350.264 C 286.200 351.269,283.824 352.562,282.578 353.137 C 281.332 353.712,280.313 354.296,280.313 354.435 C 280.313 354.574,280.178 354.688,280.014 354.688 C 279.850 354.688,277.916 355.543,275.717 356.589 C 267.419 360.535,260.074 363.276,249.063 366.533 C 247.258 367.067,245.359 367.631,244.844 367.785 C 244.328 367.939,243.344 368.158,242.656 368.270 C 241.969 368.383,240.984 368.601,240.469 368.754 C 238.780 369.256,235.221 369.941,231.563 370.468 C 229.586 370.753,227.266 371.110,226.406 371.260 C 216.361 373.021,193.322 373.509,185.469 372.127 C 184.438 371.945,182.328 371.680,180.781 371.537 C 179.234 371.394,177.406 371.197,176.719 371.099 C 173.264 370.604,169.319 369.937,167.500 369.540 C 166.383 369.296,164.414 368.869,163.125 368.591 C 158.861 367.672,151.772 365.610,151.615 365.243 C 151.557 365.109,151.276 365.000,150.990 365.000 C 150.513 365.000,145.365 363.419,143.906 362.825 C 143.563 362.685,141.453 361.902,139.219 361.084 C 136.984 360.267,133.575 358.845,131.643 357.924 C 129.711 357.003,127.988 356.250,127.815 356.250 C 127.642 356.250,127.500 356.109,127.500 355.938 C 127.500 355.766,127.342 355.625,127.148 355.625 C 126.455 355.625,118.795 351.648,116.765 350.234 C 116.086 349.762,115.341 349.375,115.109 349.375 C 114.877 349.375,114.688 349.234,114.688 349.063 C 114.688 348.891,114.487 348.750,114.241 348.750 C 113.996 348.750,113.609 348.574,113.382 348.359 C 113.155 348.143,112.441 347.690,111.797 347.350 C 111.152 347.011,110.625 346.624,110.625 346.491 C 110.625 346.359,110.469 346.250,110.279 346.250 C 110.089 346.250,109.401 345.828,108.750 345.313 C 108.099 344.797,107.500 344.375,107.418 344.375 C 107.204 344.375,102.998 341.537,102.813 341.267 C 102.727 341.142,101.880 340.547,100.932 339.945 C 99.984 339.343,98.999 338.649,98.745 338.403 C 98.490 338.156,97.227 337.160,95.938 336.189 C 94.648 335.218,93.379 334.237,93.116 334.009 C 92.854 333.780,91.237 332.398,89.524 330.938 C 85.953 327.891,82.613 324.743,78.916 320.938 C 74.348 316.234,73.125 314.924,73.120 314.725 C 73.118 314.619,72.379 313.732,71.480 312.755 C 70.580 311.777,69.492 310.532,69.063 309.988 C 68.633 309.443,68.139 308.836,67.965 308.639 C 67.790 308.442,67.061 307.508,66.343 306.563 C 65.625 305.617,64.849 304.629,64.619 304.366 C 64.389 304.103,63.712 303.192,63.116 302.342 C 62.519 301.492,61.785 300.520,61.484 300.183 C 61.184 299.846,60.937 299.417,60.937 299.229 C 60.938 299.042,60.516 298.427,60.000 297.863 C 59.484 297.298,59.063 296.715,59.063 296.566 C 59.063 296.417,58.887 296.106,58.672 295.876 C 58.457 295.646,58.007 294.968,57.672 294.369 C 57.337 293.771,56.802 293.001,56.484 292.658 C 56.166 292.315,55.606 291.436,55.241 290.705 C 54.876 289.973,54.476 289.375,54.353 289.375 C 54.231 289.375,54.042 289.023,53.934 288.594 C 53.826 288.164,53.600 287.812,53.432 287.813 C 53.263 287.813,53.125 287.599,53.125 287.338 C 53.125 287.076,52.796 286.338,52.393 285.697 C 51.664 284.535,49.869 281.344,49.277 280.156 C 49.106 279.813,48.856 279.320,48.722 279.063 C 48.192 278.045,45.560 272.602,45.170 271.719 C 44.942 271.203,44.389 269.969,43.941 268.976 C 43.492 267.983,43.125 266.981,43.125 266.748 C 43.125 266.516,42.914 266.151,42.656 265.938 C 42.398 265.724,42.188 265.245,42.188 264.875 C 42.188 264.505,42.007 263.924,41.786 263.585 C 41.565 263.246,41.123 262.195,40.805 261.250 C 40.486 260.305,40.104 259.398,39.956 259.234 C 39.808 259.071,39.688 258.641,39.688 258.278 C 39.688 257.916,39.481 257.346,39.229 257.013 C 38.976 256.679,38.765 256.088,38.760 255.699 C 38.754 255.310,38.622 254.747,38.465 254.449 C 38.009 253.579,37.260 251.193,37.045 249.922 C 36.936 249.277,36.727 248.750,36.581 248.750 C 36.435 248.750,36.245 248.223,36.158 247.578 C 35.946 245.996,35.337 243.692,35.027 243.294 C 34.887 243.115,34.687 242.206,34.583 241.274 C 34.478 240.342,34.247 239.435,34.071 239.258 C 33.894 239.082,33.750 238.394,33.750 237.729 C 33.750 237.065,33.619 236.276,33.459 235.977 C 33.150 235.401,32.636 232.500,32.216 228.966 C 32.077 227.796,31.803 226.678,31.607 226.482 C 31.400 226.275,31.250 225.090,31.250 223.657 C 31.250 222.158,31.072 220.801,30.796 220.203 C 29.571 217.547,29.627 181.940,30.859 179.786 C 31.078 179.404,31.250 178.054,31.250 176.719 C 31.250 175.407,31.421 174.027,31.631 173.651 C 31.841 173.276,32.111 172.055,32.233 170.938 C 32.531 168.191,33.081 165.354,33.448 164.668 C 33.614 164.357,33.750 163.490,33.750 162.739 C 33.750 161.989,33.915 161.210,34.118 161.007 C 34.320 160.805,34.591 159.969,34.721 159.148 C 34.851 158.328,35.195 156.883,35.485 155.938 C 35.776 154.992,36.085 153.727,36.173 153.125 C 36.260 152.523,36.524 151.754,36.760 151.415 C 36.995 151.076,37.188 150.436,37.188 149.993 C 37.188 149.550,37.308 149.054,37.455 148.891 C 37.798 148.509,38.747 145.525,38.760 144.785 C 38.765 144.474,38.976 143.946,39.229 143.612 C 39.481 143.279,39.688 142.763,39.688 142.466 C 39.688 142.169,39.888 141.528,40.132 141.041 C 40.377 140.554,40.954 139.172,41.414 137.969 C 42.258 135.766,42.413 135.397,43.883 132.101 C 44.325 131.108,44.688 130.106,44.688 129.873 C 44.688 129.641,44.898 129.276,45.156 129.063 C 45.414 128.849,45.625 128.491,45.625 128.269 C 45.625 127.773,51.047 117.206,51.872 116.094 C 52.000 115.922,52.491 115.078,52.963 114.219 C 53.795 112.707,56.129 108.889,57.886 106.167 C 58.355 105.439,58.837 104.633,58.957 104.375 C 59.076 104.117,59.263 103.836,59.373 103.750 C 59.483 103.664,60.046 102.891,60.625 102.031 C 61.204 101.172,61.766 100.398,61.875 100.313 C 61.984 100.227,62.549 99.453,63.131 98.594 C 63.713 97.734,64.336 96.875,64.516 96.684 C 65.343 95.808,66.512 94.382,67.694 92.808 C 68.402 91.865,69.316 90.729,69.725 90.283 C 70.134 89.836,70.750 89.115,71.094 88.680 C 73.702 85.378,82.118 76.749,86.873 72.500 C 88.316 71.211,89.720 69.945,89.993 69.688 C 90.266 69.430,90.977 68.848,91.573 68.395 C 92.169 67.942,93.008 67.262,93.438 66.884 C 93.867 66.506,94.618 65.892,95.106 65.520 C 95.594 65.148,96.517 64.422,97.156 63.906 C 99.188 62.268,100.082 61.608,103.281 59.381 C 105.000 58.184,106.547 57.089,106.719 56.946 C 106.891 56.804,107.242 56.587,107.500 56.465 C 107.758 56.343,108.348 55.999,108.812 55.700 C 111.080 54.237,115.010 51.845,116.406 51.077 C 117.266 50.605,118.039 50.132,118.125 50.026 C 118.475 49.597,134.386 41.886,137.188 40.789 C 139.903 39.725,140.164 39.618,141.094 39.196 C 141.609 38.961,143.367 38.343,145.000 37.820 C 146.633 37.298,148.213 36.731,148.511 36.561 C 148.810 36.390,149.310 36.250,149.624 36.250 C 149.937 36.250,150.466 36.044,150.800 35.791 C 151.133 35.539,151.855 35.328,152.403 35.322 C 152.952 35.317,153.479 35.185,153.576 35.029 C 153.672 34.874,154.454 34.649,155.313 34.531 C 156.171 34.413,156.953 34.189,157.049 34.033 C 157.146 33.877,157.582 33.750,158.018 33.750 C 158.455 33.750,159.255 33.549,159.797 33.304 C 160.338 33.059,161.344 32.790,162.031 32.707 C 162.719 32.623,164.266 32.325,165.469 32.043 C 166.672 31.761,168.623 31.392,169.805 31.224 C 170.986 31.055,172.208 30.782,172.519 30.615 C 172.829 30.449,173.717 30.313,174.490 30.313 C 175.264 30.313,176.293 30.152,176.777 29.955 C 177.816 29.533,181.243 29.155,187.566 28.766 C 190.094 28.610,192.414 28.336,192.722 28.157 C 193.492 27.709,211.631 27.694,212.078 28.141 M328.649 50.751 C 328.453 51.260,328.716 51.621,329.106 51.379 C 329.461 51.160,329.453 50.313,329.096 50.313 C 328.942 50.313,328.741 50.510,328.649 50.751 M154.374 92.970 C 153.859 93.501,153.438 94.049,153.438 94.186 C 153.438 94.324,153.234 94.880,152.985 95.422 C 152.736 95.963,152.263 97.180,151.934 98.125 C 150.306 102.795,149.331 105.528,149.090 106.094 C 148.648 107.135,147.906 109.079,146.883 111.875 C 146.349 113.336,145.780 114.813,145.619 115.156 C 145.457 115.500,144.954 116.836,144.501 118.125 C 144.048 119.414,143.567 120.609,143.432 120.781 C 143.297 120.953,143.019 121.727,142.814 122.500 C 142.609 123.273,141.700 125.875,140.794 128.281 C 139.888 130.688,138.192 135.258,137.026 138.438 C 135.859 141.617,134.785 144.352,134.640 144.516 C 134.494 144.679,134.375 145.035,134.375 145.307 C 134.375 145.578,133.589 147.836,132.629 150.322 C 131.669 152.809,130.695 155.406,130.465 156.094 C 129.704 158.362,129.050 160.147,128.748 160.781 C 128.584 161.125,128.081 162.461,127.630 163.750 C 127.178 165.039,126.630 166.516,126.411 167.031 C 126.193 167.547,125.775 168.672,125.483 169.531 C 124.945 171.112,124.641 171.895,123.901 173.594 C 123.677 174.109,123.424 174.813,123.340 175.156 C 123.256 175.500,122.811 176.766,122.351 177.969 C 121.891 179.172,121.371 180.648,121.196 181.250 C 121.021 181.852,120.684 182.766,120.447 183.281 C 120.035 184.180,119.130 186.611,116.553 193.750 C 111.484 207.791,108.776 215.118,108.439 215.699 C 108.266 215.997,108.125 216.390,108.125 216.572 C 108.125 216.910,106.198 222.220,105.464 223.906 C 105.239 224.422,104.564 226.250,103.965 227.969 C 102.156 233.151,97.292 246.187,95.393 250.938 C 94.809 252.398,94.208 254.086,94.057 254.688 C 93.905 255.289,93.303 256.977,92.717 258.438 C 92.131 259.898,91.399 261.864,91.090 262.806 C 90.780 263.748,90.212 265.154,89.826 265.931 C 89.441 266.708,88.558 268.539,87.865 270.000 C 87.172 271.461,86.103 273.425,85.490 274.364 C 84.877 275.304,84.375 276.172,84.375 276.294 C 84.375 276.531,83.717 277.254,80.418 280.641 C 79.255 281.835,78.184 282.813,78.037 282.813 C 77.891 282.813,77.323 283.141,76.776 283.542 C 75.451 284.515,73.321 285.271,71.406 285.448 C 70.547 285.528,68.900 285.681,67.747 285.789 C 65.483 286.000,64.063 286.782,64.063 287.817 C 64.063 288.138,63.943 288.474,63.798 288.564 C 63.652 288.654,63.644 289.401,63.779 290.223 C 63.915 291.046,64.034 291.889,64.044 292.097 C 64.128 293.812,63.100 293.751,91.543 293.743 C 122.209 293.735,119.139 294.169,118.998 289.865 C 118.872 286.064,118.723 285.960,112.930 285.621 C 107.401 285.297,103.810 283.589,102.948 280.873 C 102.850 280.565,102.655 280.312,102.514 280.312 C 101.838 280.312,101.223 271.465,101.855 270.832 C 102.038 270.649,102.192 269.790,102.197 268.922 C 102.203 268.033,102.408 267.079,102.666 266.737 C 102.919 266.404,103.125 265.689,103.125 265.149 C 103.125 264.609,103.216 264.076,103.327 263.964 C 103.633 263.659,104.666 260.549,104.677 259.900 C 104.683 259.586,104.898 259.119,105.156 258.862 C 105.414 258.604,105.629 258.086,105.635 257.712 C 105.640 257.338,105.851 256.758,106.104 256.425 C 106.356 256.091,106.563 255.502,106.563 255.115 C 106.563 254.728,106.703 254.325,106.875 254.219 C 107.047 254.113,107.192 253.718,107.197 253.341 C 107.203 252.964,107.414 252.383,107.666 252.050 C 107.919 251.716,108.129 251.154,108.135 250.800 C 108.140 250.446,108.351 249.883,108.604 249.550 C 108.856 249.216,109.063 248.627,109.063 248.240 C 109.063 247.853,109.203 247.450,109.375 247.344 C 109.547 247.238,109.688 246.913,109.689 246.622 C 109.690 246.332,109.901 245.691,110.158 245.199 C 110.415 244.706,110.629 244.074,110.635 243.792 C 110.640 243.511,110.851 243.008,111.104 242.675 C 111.356 242.341,111.563 241.830,111.563 241.538 C 111.563 241.247,111.773 240.606,112.029 240.114 C 112.286 239.622,112.497 238.981,112.498 238.690 C 112.499 238.400,112.641 238.075,112.813 237.969 C 112.984 237.863,113.125 237.379,113.125 236.895 C 113.125 236.410,113.336 235.839,113.594 235.625 C 113.852 235.411,114.063 234.988,114.063 234.685 C 114.063 234.382,114.273 233.731,114.529 233.239 C 114.786 232.747,114.997 232.106,114.998 231.815 C 114.999 231.525,115.141 231.200,115.313 231.094 C 115.484 230.988,115.625 230.504,115.625 230.020 C 115.625 229.535,115.836 228.964,116.094 228.750 C 116.352 228.536,116.563 227.974,116.563 227.500 C 116.563 227.026,116.773 226.464,117.031 226.250 C 117.289 226.036,117.500 225.535,117.500 225.136 C 117.500 224.738,117.641 224.325,117.813 224.219 C 117.984 224.113,118.126 223.788,118.127 223.497 C 118.128 223.207,118.339 222.566,118.596 222.074 C 118.852 221.581,119.067 220.878,119.072 220.511 C 119.078 220.144,119.289 219.571,119.541 219.237 C 119.794 218.904,120.000 218.388,120.000 218.091 C 120.000 217.794,120.235 217.082,120.522 216.510 C 121.498 214.561,121.563 214.383,121.563 213.636 C 121.563 213.225,121.773 212.714,122.031 212.500 C 122.289 212.286,122.500 211.863,122.500 211.560 C 122.500 211.257,122.710 210.606,122.967 210.114 C 123.224 209.622,123.435 208.911,123.436 208.534 C 123.437 208.157,123.578 207.762,123.750 207.656 C 123.922 207.550,124.063 207.137,124.063 206.739 C 124.063 206.340,124.273 205.839,124.531 205.625 C 124.789 205.411,125.004 204.866,125.010 204.415 C 125.015 203.963,125.226 203.321,125.479 202.987 C 125.731 202.654,125.938 202.056,125.938 201.659 L 125.938 200.938 175.021 200.937 L 224.104 200.937 225.255 201.795 C 225.888 202.267,226.477 202.724,226.563 202.811 C 226.648 202.898,227.271 203.250,227.946 203.594 C 228.621 203.938,229.324 204.361,229.508 204.535 C 229.693 204.709,230.266 205.118,230.781 205.443 C 233.130 206.925,239.330 212.235,241.505 214.627 C 242.826 216.079,244.052 217.425,244.229 217.618 C 244.407 217.811,244.892 218.461,245.308 219.063 C 245.723 219.664,246.148 220.227,246.251 220.313 C 246.354 220.398,246.923 221.170,247.516 222.027 C 248.109 222.884,248.770 223.773,248.984 224.003 C 249.199 224.232,249.375 224.539,249.375 224.685 C 249.375 224.831,250.103 226.122,250.993 227.553 C 251.883 228.985,253.586 232.055,254.776 234.375 C 255.966 236.695,257.501 239.619,258.186 240.872 C 258.883 242.146,259.350 243.364,259.246 243.635 C 259.129 243.940,259.264 244.174,259.608 244.264 C 259.910 244.343,260.314 244.716,260.507 245.094 C 261.383 246.813,265.547 254.909,265.843 255.469 C 266.025 255.813,266.518 256.797,266.939 257.656 C 268.575 260.995,271.546 266.535,272.323 267.692 C 272.772 268.360,273.911 270.031,274.855 271.406 C 275.799 272.781,277.074 274.656,277.687 275.573 C 280.295 279.470,287.704 286.167,291.970 288.484 C 293.551 289.343,295.721 290.284,296.526 290.461 C 297.058 290.578,297.573 290.803,297.671 290.962 C 297.769 291.120,298.166 291.250,298.552 291.250 C 298.939 291.250,299.529 291.456,299.862 291.709 C 300.196 291.961,300.968 292.172,301.578 292.178 C 302.188 292.183,302.843 292.343,303.034 292.534 C 303.732 293.232,309.246 293.522,324.120 293.640 L 339.334 293.762 340.108 292.740 C 342.363 289.765,340.558 285.305,337.103 285.313 C 336.609 285.315,332.708 283.686,332.494 283.389 C 332.404 283.265,331.982 283.013,331.556 282.828 C 327.119 280.903,318.157 273.461,313.281 267.653 C 312.422 266.629,311.121 265.185,310.391 264.444 C 309.660 263.702,309.063 263.023,309.063 262.933 C 309.063 262.722,307.508 260.612,306.887 259.980 C 306.623 259.711,306.055 259.035,305.625 258.478 C 305.195 257.921,304.583 257.157,304.263 256.779 C 303.378 255.734,300.938 252.288,300.938 252.084 C 300.938 251.985,300.621 251.573,300.234 251.169 C 298.972 249.851,298.125 248.751,298.125 248.431 C 298.125 248.170,297.191 246.895,294.990 244.154 C 294.824 243.946,294.688 243.690,294.688 243.585 C 294.688 243.479,294.512 243.197,294.297 242.957 C 293.501 242.069,293.245 241.706,293.041 241.172 C 292.926 240.871,292.687 240.625,292.510 240.625 C 292.333 240.625,292.188 240.462,292.188 240.263 C 292.187 240.064,291.625 239.156,290.937 238.245 C 290.250 237.334,289.687 236.450,289.688 236.279 C 289.688 236.108,289.512 235.856,289.297 235.719 C 289.082 235.581,288.636 234.977,288.305 234.375 C 287.975 233.773,287.412 232.994,287.055 232.644 C 286.698 232.293,286.138 231.484,285.810 230.847 C 285.482 230.209,285.096 229.688,284.951 229.688 C 284.806 229.688,284.688 229.545,284.688 229.372 C 284.688 229.095,280.759 223.585,279.864 222.605 C 279.681 222.405,279.183 221.772,278.758 221.199 C 278.333 220.625,277.383 219.540,276.649 218.787 C 275.914 218.034,275.313 217.353,275.313 217.273 C 275.313 216.698,267.203 209.402,263.906 207.012 C 261.672 205.392,259.674 203.925,259.466 203.752 C 259.259 203.579,259.013 203.438,258.920 203.438 C 258.632 203.438,254.850 200.585,254.740 200.285 C 254.682 200.128,255.412 200.000,256.362 200.000 C 257.311 200.000,258.163 199.879,258.255 199.730 C 258.347 199.582,259.420 199.389,260.640 199.301 C 261.859 199.214,263.016 198.984,263.210 198.790 C 263.404 198.596,264.070 198.438,264.690 198.438 C 265.311 198.438,266.091 198.231,266.425 197.979 C 266.758 197.726,267.691 197.515,268.497 197.510 C 269.303 197.504,270.050 197.359,270.156 197.188 C 270.262 197.016,270.657 196.874,271.034 196.873 C 271.411 196.872,272.122 196.661,272.614 196.404 C 273.106 196.148,273.888 195.938,274.351 195.938 C 274.814 195.938,275.466 195.731,275.800 195.479 C 276.133 195.226,276.688 195.011,277.031 195.000 C 277.375 194.989,277.929 194.774,278.263 194.521 C 278.596 194.269,279.194 194.063,279.591 194.063 C 279.988 194.063,280.313 193.922,280.313 193.750 C 280.313 193.578,280.519 193.438,280.771 193.438 C 281.300 193.438,282.491 192.929,286.406 191.030 C 289.601 189.480,289.561 189.503,293.047 187.230 C 294.465 186.306,295.625 185.425,295.625 185.275 C 295.625 185.124,295.777 185.000,295.963 185.000 C 296.771 185.000,302.339 179.913,304.549 177.156 C 306.673 174.506,309.063 170.813,309.063 170.180 C 309.063 169.909,309.170 169.688,309.301 169.688 C 309.757 169.688,312.104 164.165,312.422 162.344 C 312.512 161.828,312.777 161.129,313.012 160.790 C 313.246 160.451,313.438 159.651,313.438 159.011 C 313.438 158.372,313.567 157.769,313.725 157.671 C 313.884 157.574,314.112 156.546,314.232 155.387 C 314.352 154.229,314.580 153.120,314.737 152.923 C 315.457 152.020,314.556 132.821,313.781 132.562 C 313.592 132.499,313.433 132.003,313.426 131.458 C 313.420 130.914,313.214 130.117,312.969 129.688 C 312.723 129.258,312.517 128.449,312.511 127.891 C 312.505 127.332,312.359 126.875,312.188 126.875 C 312.016 126.875,311.875 126.541,311.875 126.132 C 311.875 125.723,311.664 125.214,311.406 125.000 C 311.148 124.786,310.938 124.328,310.938 123.983 C 310.938 123.344,309.761 121.179,309.310 120.990 C 309.174 120.932,309.063 120.616,309.063 120.286 C 309.063 119.957,308.938 119.688,308.786 119.688 C 308.635 119.688,308.420 119.441,308.310 119.141 C 307.950 118.159,307.223 117.004,306.416 116.134 C 305.981 115.664,305.625 115.218,305.625 115.143 C 305.625 115.067,305.357 114.687,305.028 114.299 C 302.087 110.821,301.563 110.162,301.563 109.941 C 301.563 109.801,301.387 109.684,301.172 109.680 C 300.957 109.676,300.276 109.219,299.659 108.665 C 299.042 108.110,297.959 107.186,297.252 106.612 C 296.546 106.038,295.658 105.300,295.280 104.972 C 294.901 104.643,294.473 104.375,294.327 104.375 C 294.182 104.375,294.063 104.164,294.063 103.906 C 294.063 103.615,293.767 103.438,293.281 103.438 C 292.852 103.438,292.500 103.297,292.500 103.125 C 292.500 102.953,292.278 102.813,292.008 102.813 C 291.737 102.813,290.577 102.267,289.430 101.601 C 287.705 100.599,284.410 99.105,281.094 97.820 C 280.750 97.687,280.098 97.430,279.644 97.249 C 278.177 96.664,272.193 95.000,271.556 95.000 C 271.216 95.000,270.938 94.859,270.938 94.688 C 270.938 94.516,270.567 94.375,270.114 94.375 C 269.325 94.375,267.119 94.055,263.438 93.406 C 257.310 92.325,251.709 92.184,214.126 92.159 C 172.370 92.132,175.655 91.941,174.985 94.430 C 174.097 97.729,175.271 99.551,178.438 99.786 C 186.841 100.409,191.250 105.048,192.009 114.063 C 192.103 115.180,192.320 117.359,192.492 118.906 C 192.665 120.453,192.799 126.497,192.792 132.338 C 192.783 139.518,192.885 142.993,193.108 143.067 C 193.289 143.128,193.438 143.298,193.438 143.445 C 193.438 143.592,194.070 145.058,194.844 146.702 C 195.617 148.346,196.250 149.805,196.250 149.943 C 196.250 150.082,196.602 150.924,197.031 151.815 C 197.893 153.601,198.017 154.550,197.422 154.798 C 197.207 154.887,197.357 154.934,197.756 154.902 C 198.323 154.856,198.567 155.082,198.877 155.938 C 199.095 156.539,199.718 157.959,200.262 159.093 C 200.805 160.227,201.250 161.236,201.250 161.336 C 201.250 161.435,201.723 162.547,202.301 163.805 C 202.879 165.064,204.027 167.711,204.852 169.688 C 205.677 171.664,206.540 173.559,206.770 173.898 C 207.000 174.237,207.188 174.761,207.188 175.063 C 207.188 175.364,207.560 176.423,208.016 177.415 C 208.471 178.407,209.169 179.922,209.565 180.781 C 211.347 184.639,212.188 186.636,212.188 187.011 C 212.188 187.234,212.479 187.786,212.835 188.239 L 213.483 189.063 218.880 189.063 C 223.713 189.063,224.332 189.003,224.795 188.491 C 225.271 187.965,225.313 184.502,225.313 145.045 L 225.313 102.171 235.234 102.289 C 245.165 102.408,252.339 102.855,253.687 103.439 C 254.081 103.610,254.811 103.750,255.309 103.750 C 255.806 103.750,256.293 103.880,256.391 104.038 C 256.489 104.197,257.025 104.424,257.582 104.543 C 259.104 104.867,263.642 107.068,265.944 108.598 C 267.784 109.821,269.242 111.159,271.730 113.906 C 273.487 115.846,277.187 121.999,277.188 122.980 C 277.188 123.094,277.377 123.630,277.608 124.172 C 278.256 125.687,278.705 127.213,278.935 128.679 C 279.050 129.413,279.267 130.089,279.416 130.182 C 279.565 130.274,279.688 130.969,279.688 131.726 C 279.688 132.484,279.908 133.751,280.176 134.543 C 280.761 136.266,280.921 154.423,280.357 155.103 C 280.183 155.313,279.949 156.254,279.837 157.195 C 279.651 158.766,279.061 161.110,278.464 162.656 C 278.331 163.000,277.980 164.055,277.683 165.000 C 277.095 166.874,276.272 168.815,275.961 169.063 C 275.853 169.148,275.500 169.816,275.178 170.547 C 274.545 171.983,274.401 172.079,273.780 171.484 C 273.446 171.165,273.410 171.278,273.584 172.100 C 273.753 172.904,273.633 173.320,272.992 174.161 C 272.549 174.741,272.188 175.320,272.188 175.448 C 272.188 175.975,266.847 181.359,265.584 182.105 C 265.091 182.396,264.688 182.745,264.688 182.880 C 264.688 183.015,264.548 183.125,264.379 183.125 C 264.209 183.125,263.800 183.356,263.470 183.638 C 262.396 184.558,257.149 187.165,254.718 187.986 C 252.243 188.823,250.703 189.210,247.813 189.721 C 246.867 189.888,245.461 190.185,244.688 190.381 C 243.176 190.765,213.387 191.150,212.007 190.803 C 211.537 190.685,211.250 190.387,211.250 190.016 C 211.250 189.688,211.039 189.209,210.781 188.951 C 210.523 188.693,210.313 188.201,210.313 187.857 C 210.313 187.513,210.102 187.021,209.844 186.763 C 209.586 186.506,209.375 186.121,209.375 185.909 C 209.375 185.309,208.347 183.125,208.065 183.125 C 207.926 183.125,207.813 182.720,207.813 182.226 C 207.813 181.731,207.602 181.151,207.344 180.938 C 207.086 180.724,206.875 180.214,206.875 179.805 C 206.875 179.397,206.734 179.063,206.563 179.063 C 206.391 179.063,206.250 178.791,206.250 178.460 C 206.250 178.128,206.039 177.646,205.781 177.388 C 205.523 177.131,205.313 176.638,205.313 176.295 C 205.313 175.951,205.102 175.459,204.844 175.201 C 204.586 174.943,204.375 174.548,204.375 174.324 C 204.375 174.099,204.009 173.140,203.562 172.192 C 202.334 169.589,201.937 168.663,201.719 167.891 C 201.610 167.504,201.389 167.188,201.229 167.188 C 201.069 167.188,200.938 166.954,200.938 166.668 C 200.938 165.965,199.943 163.750,199.627 163.750 C 199.489 163.750,199.375 163.345,199.375 162.851 C 199.375 162.356,199.164 161.776,198.906 161.563 C 198.648 161.349,198.438 160.899,198.438 160.564 C 198.438 160.229,198.227 159.744,197.969 159.487 C 197.711 159.229,197.500 158.676,197.500 158.259 C 197.500 157.842,197.359 157.500,197.188 157.500 C 197.016 157.500,196.875 157.276,196.875 157.001 C 196.875 156.727,196.643 156.059,196.360 155.517 C 195.165 153.228,195.000 152.848,195.000 152.374 C 195.000 152.099,194.859 151.875,194.688 151.875 C 194.516 151.875,194.375 151.621,194.375 151.310 C 194.375 150.999,194.169 150.471,193.916 150.138 C 193.664 149.804,193.453 149.302,193.447 149.023 C 193.442 148.743,193.227 148.339,192.969 148.125 C 192.711 147.911,192.500 147.546,192.500 147.314 C 192.500 147.082,192.138 146.080,191.695 145.087 C 191.252 144.094,190.694 142.822,190.454 142.261 C 190.020 141.247,189.589 140.261,188.628 138.078 C 188.351 137.450,188.125 136.782,188.125 136.593 C 188.125 136.405,187.984 136.250,187.813 136.250 C 187.641 136.250,187.500 135.961,187.500 135.607 C 187.500 135.253,187.165 134.364,186.756 133.631 C 186.346 132.898,185.913 131.851,185.793 131.305 C 185.673 130.759,185.446 130.313,185.288 130.313 C 185.129 130.313,185.000 130.048,185.000 129.726 C 185.000 129.403,184.789 128.964,184.531 128.750 C 184.273 128.536,184.063 128.035,184.063 127.636 C 184.063 127.238,183.933 126.832,183.774 126.734 C 183.615 126.636,183.393 126.135,183.280 125.621 C 183.168 125.108,182.946 124.688,182.788 124.688 C 182.629 124.688,182.500 124.332,182.500 123.896 C 182.500 123.461,182.289 123.024,182.031 122.926 C 181.773 122.827,181.563 122.466,181.563 122.124 C 181.563 121.782,181.369 121.129,181.132 120.673 C 180.895 120.217,180.530 119.422,180.322 118.906 C 180.113 118.391,179.744 117.571,179.502 117.084 C 179.260 116.597,179.063 116.017,179.063 115.794 C 179.063 115.571,178.852 115.214,178.594 115.000 C 178.336 114.786,178.125 114.354,178.125 114.041 C 178.125 113.727,177.773 112.809,177.344 112.001 C 176.914 111.193,176.563 110.289,176.563 109.992 C 176.563 109.695,176.352 109.276,176.094 109.063 C 175.836 108.849,175.625 108.457,175.625 108.192 C 175.625 107.519,174.621 105.313,174.315 105.313 C 174.176 105.313,174.063 105.043,174.063 104.713 C 174.063 104.383,173.827 103.645,173.539 103.072 C 173.252 102.500,172.830 101.658,172.602 101.202 C 172.374 100.746,172.188 100.148,172.188 99.874 C 172.188 99.599,172.047 99.375,171.875 99.375 C 171.703 99.375,171.563 99.151,171.563 98.876 C 171.563 98.602,171.372 98.004,171.138 97.548 C 170.905 97.092,170.320 95.911,169.838 94.925 C 168.409 92.000,168.709 92.104,161.565 92.051 L 155.310 92.004 154.374 92.970 M152.348 133.261 C 152.775 134.196,153.125 135.106,153.125 135.284 C 153.125 135.462,153.492 136.420,153.941 137.413 C 155.280 140.379,155.711 141.358,156.112 142.344 C 156.322 142.859,156.849 144.125,157.283 145.156 C 157.717 146.188,158.305 147.594,158.590 148.281 C 158.875 148.969,159.294 149.953,159.521 150.469 C 159.748 150.984,160.106 151.828,160.316 152.344 C 160.526 152.859,160.822 153.525,160.974 153.824 C 161.126 154.122,161.250 154.571,161.250 154.822 C 161.250 155.072,161.522 155.742,161.855 156.310 C 162.188 156.879,163.521 159.848,164.818 162.909 C 166.115 165.970,167.380 168.923,167.628 169.472 C 168.410 171.194,169.901 175.097,170.337 176.563 C 170.567 177.336,170.841 178.039,170.946 178.125 C 171.260 178.382,172.500 181.103,172.500 181.535 C 172.500 181.755,172.698 182.308,172.941 182.764 C 173.534 183.880,174.375 185.827,174.375 186.083 C 174.375 186.272,175.635 189.114,176.278 190.375 C 176.532 190.873,175.079 190.908,153.274 190.930 C 130.604 190.952,130.000 190.937,130.000 190.358 C 130.000 190.031,130.211 189.589,130.469 189.375 C 130.727 189.161,130.938 188.660,130.938 188.261 C 130.938 187.863,131.067 187.457,131.226 187.359 C 131.385 187.261,131.609 186.751,131.724 186.225 C 131.840 185.700,132.131 184.893,132.371 184.432 C 132.612 183.971,132.810 183.356,132.811 183.065 C 132.812 182.775,132.953 182.450,133.125 182.344 C 133.297 182.238,133.438 181.752,133.438 181.265 C 133.438 180.766,133.642 180.301,133.906 180.199 C 134.177 180.095,134.375 179.628,134.375 179.091 C 134.375 178.580,134.516 178.075,134.688 177.969 C 134.859 177.863,135.001 177.538,135.002 177.247 C 135.003 176.957,135.214 176.316,135.471 175.824 C 135.727 175.331,135.938 174.620,135.938 174.243 C 135.938 173.866,136.144 173.284,136.396 172.950 C 136.649 172.617,136.860 172.114,136.865 171.833 C 136.871 171.551,137.085 170.919,137.342 170.426 C 137.599 169.934,137.810 169.293,137.811 169.003 C 137.812 168.712,137.953 168.387,138.125 168.281 C 138.297 168.175,138.438 167.692,138.438 167.207 C 138.438 166.723,138.648 166.151,138.906 165.938 C 139.164 165.724,139.375 165.204,139.375 164.783 C 139.375 164.362,139.586 163.807,139.844 163.549 C 140.102 163.291,140.313 162.747,140.313 162.340 C 140.313 161.933,140.453 161.512,140.625 161.406 C 140.797 161.300,140.938 160.997,140.938 160.732 C 140.938 160.240,141.583 158.624,142.372 157.139 C 142.614 156.683,142.813 155.953,142.813 155.517 C 142.813 155.081,142.953 154.637,143.125 154.531 C 143.297 154.425,143.438 154.100,143.439 153.810 C 143.440 153.519,143.651 152.878,143.908 152.386 C 144.165 151.894,144.375 151.173,144.375 150.784 C 144.375 150.395,144.586 149.901,144.844 149.688 C 145.102 149.474,145.313 149.051,145.313 148.747 C 145.313 148.444,145.523 147.794,145.779 147.301 C 146.036 146.809,146.247 146.168,146.248 145.878 C 146.249 145.587,146.391 145.262,146.563 145.156 C 146.734 145.050,146.875 144.567,146.875 144.082 C 146.875 143.598,147.086 143.026,147.344 142.813 C 147.602 142.599,147.817 142.124,147.822 141.759 C 147.828 141.393,148.039 140.821,148.291 140.487 C 148.544 140.154,148.750 139.564,148.750 139.177 C 148.750 138.791,148.891 138.387,149.063 138.281 C 149.234 138.175,149.375 137.772,149.375 137.385 C 149.375 136.998,149.581 136.409,149.834 136.075 C 150.086 135.742,150.302 135.117,150.313 134.688 C 150.323 134.258,150.539 133.633,150.791 133.300 C 151.044 132.966,151.250 132.439,151.250 132.128 C 151.250 131.187,151.533 131.479,152.348 133.261 M296.250 186.563 C 296.250 186.906,296.391 187.188,296.563 187.188 C 296.734 187.188,296.875 186.906,296.875 186.563 C 296.875 186.219,296.734 185.938,296.563 185.938 C 296.391 185.938,296.250 186.219,296.250 186.563 M185.711 203.966 C 183.799 204.222,182.702 207.033,183.896 208.612 C 184.149 208.946,184.360 209.391,184.365 209.601 C 184.371 209.811,184.737 210.795,185.180 211.788 C 186.393 214.509,186.745 215.337,187.344 216.875 C 187.645 217.648,188.070 218.703,188.288 219.219 C 188.506 219.734,188.825 220.508,188.997 220.938 C 189.169 221.367,189.761 222.703,190.313 223.906 C 190.864 225.109,191.454 226.445,191.624 226.875 C 191.794 227.305,192.131 228.054,192.373 228.541 C 192.615 229.028,192.813 229.604,192.813 229.823 C 192.813 230.041,193.146 230.847,193.555 231.615 C 193.963 232.383,194.401 233.353,194.529 233.771 C 194.657 234.189,195.075 235.234,195.458 236.094 C 196.697 238.873,197.814 241.710,197.813 242.071 C 197.813 242.265,198.023 242.599,198.281 242.813 C 198.539 243.026,198.750 243.454,198.750 243.763 C 198.750 244.072,198.948 244.722,199.190 245.209 C 199.432 245.696,199.803 246.516,200.015 247.031 C 200.988 249.400,202.650 253.156,203.309 254.478 C 203.552 254.965,203.750 255.576,203.750 255.836 C 203.750 256.097,203.948 256.683,204.191 257.139 C 204.433 257.595,204.865 258.531,205.149 259.219 C 205.434 259.906,205.818 260.820,206.002 261.250 C 206.187 261.680,206.515 262.453,206.731 262.969 C 206.947 263.484,207.468 264.680,207.888 265.625 C 208.871 267.837,209.375 269.404,209.375 270.249 C 209.375 270.619,209.656 271.383,209.999 271.946 C 210.898 273.420,210.918 279.769,210.029 281.497 C 208.497 284.474,206.720 285.345,201.589 285.633 C 194.939 286.007,193.510 287.372,195.078 291.853 C 195.781 293.861,193.143 293.729,232.992 293.740 L 269.579 293.750 270.258 293.027 C 270.840 292.407,270.936 291.948,270.928 289.824 C 270.913 286.293,270.362 285.826,265.619 285.334 C 259.853 284.735,257.913 283.805,253.775 279.659 C 251.500 277.378,250.305 276.031,249.368 274.688 C 248.948 274.086,248.374 273.313,248.091 272.969 C 247.193 271.875,243.998 265.795,242.673 262.656 C 242.383 261.969,242.026 261.125,241.881 260.781 C 241.736 260.438,241.171 259.172,240.625 257.969 C 239.299 255.046,239.135 254.650,238.905 253.828 C 238.797 253.441,238.577 253.125,238.416 253.125 C 238.256 253.125,238.125 252.842,238.125 252.496 C 238.125 252.150,237.994 251.622,237.834 251.324 C 237.483 250.670,235.914 247.203,235.184 245.469 C 234.894 244.781,234.523 243.975,234.360 243.676 C 234.196 243.378,234.063 242.868,234.063 242.543 C 234.063 242.217,233.852 241.776,233.594 241.563 C 233.336 241.349,233.125 240.927,233.125 240.625 C 233.125 240.323,232.914 239.901,232.656 239.688 C 232.398 239.474,232.188 239.042,232.188 238.728 C 232.188 238.415,231.836 237.497,231.406 236.689 C 230.977 235.881,230.625 234.955,230.625 234.631 C 230.625 234.308,230.414 233.962,230.156 233.863 C 229.898 233.764,229.688 233.428,229.688 233.117 C 229.688 232.805,229.489 232.153,229.246 231.666 C 228.005 229.176,227.188 227.291,227.188 226.919 C 227.188 226.690,226.993 226.129,226.755 225.673 C 225.754 223.751,223.750 219.490,223.750 219.283 C 223.750 219.160,223.416 218.368,223.009 217.523 C 222.601 216.678,222.177 215.624,222.065 215.181 C 221.954 214.738,221.725 214.375,221.557 214.375 C 221.388 214.375,221.250 214.080,221.250 213.720 C 221.250 213.360,221.056 212.692,220.819 212.236 C 220.235 211.111,219.767 209.986,219.530 209.141 C 219.422 208.754,219.202 208.438,219.041 208.438 C 218.881 208.438,218.750 208.201,218.750 207.911 C 218.750 207.188,217.579 204.830,216.968 204.322 C 216.480 203.917,188.461 203.598,185.711 203.966 " stroke="none" fill="#000000" fill-rule="evenodd"></path></g></svg>