<svg id="svg" xmlns="http://www.w3.org/2000/svg" xmlns:xlink="http://www.w3.org/1999/xlink" width="400" height="400" viewBox="0, 0, 400,400"><g id="svgg"><path id="path0" d="M36.875 31.524 C 35.646 31.872,35.201 33.236,34.054 40.156 C 33.911 41.016,33.424 43.617,32.972 45.938 C 32.004 50.899,31.946 52.080,32.636 52.770 C 33.107 53.241,42.581 53.295,152.746 53.451 C 247.690 53.585,272.795 53.703,274.531 54.019 C 275.734 54.238,277.703 54.566,278.906 54.748 C 280.820 55.037,286.474 56.368,289.219 57.176 C 311.959 63.868,331.219 83.081,338.254 106.094 C 339.593 110.474,339.923 111.691,340.117 112.969 C 340.195 113.484,340.489 115.102,340.769 116.563 C 342.345 124.771,341.974 140.736,339.988 150.156 C 339.807 151.016,339.543 152.352,339.401 153.125 C 339.258 153.898,339.000 154.953,338.826 155.469 C 338.653 155.984,338.334 157.039,338.119 157.813 C 337.040 161.692,336.724 162.664,335.936 164.531 C 335.646 165.219,335.090 166.625,334.699 167.656 C 333.117 171.839,328.407 181.426,326.411 184.531 C 325.858 185.391,324.758 187.151,323.966 188.443 C 319.663 195.462,307.648 209.227,301.406 214.287 C 294.932 219.536,293.128 220.916,288.849 223.889 C 284.082 227.202,274.149 232.509,268.624 234.694 L 266.780 235.424 266.048 234.509 C 265.645 234.005,265.315 233.497,265.314 233.379 C 265.313 233.261,264.071 231.151,262.554 228.691 C 257.159 219.947,254.600 215.769,254.069 214.844 C 253.773 214.328,252.925 212.922,252.183 211.719 C 249.498 207.362,243.963 198.259,243.442 197.344 C 243.149 196.828,241.779 194.578,240.398 192.344 C 239.018 190.109,236.303 185.680,234.365 182.500 C 228.270 172.496,227.256 170.838,225.860 168.594 C 225.111 167.391,223.956 165.492,223.292 164.375 C 222.628 163.258,221.288 161.078,220.313 159.531 C 219.339 157.984,217.305 154.680,215.794 152.188 C 214.283 149.695,211.918 145.828,210.538 143.594 C 209.158 141.359,207.786 139.100,207.490 138.573 C 207.193 138.046,205.999 136.078,204.835 134.198 C 203.672 132.319,202.425 130.269,202.063 129.642 C 201.306 128.329,199.272 125.002,192.489 113.982 C 189.819 109.643,186.103 103.563,184.232 100.469 C 177.642 89.571,177.475 89.356,175.947 89.841 C 175.153 90.093,174.434 92.676,173.427 98.906 C 173.288 99.766,173.023 101.383,172.837 102.500 C 172.651 103.617,172.371 105.332,172.216 106.310 C 172.061 107.289,171.850 108.225,171.748 108.391 C 171.645 108.556,171.437 109.513,171.284 110.518 C 171.131 111.522,170.705 113.891,170.338 115.781 C 169.970 117.672,169.540 119.922,169.383 120.781 C 169.225 121.641,168.885 123.398,168.627 124.688 C 168.368 125.977,167.996 128.016,167.801 129.219 C 167.605 130.422,167.321 131.969,167.171 132.656 C 167.021 133.344,166.672 135.172,166.397 136.719 C 165.896 139.536,165.736 140.356,164.850 144.648 C 164.589 145.915,164.375 147.188,164.375 147.478 C 164.375 147.952,167.117 152.690,170.537 158.125 C 171.240 159.242,172.704 161.633,173.789 163.438 C 174.875 165.242,176.295 167.521,176.944 168.500 C 177.594 169.480,178.125 170.350,178.125 170.433 C 178.125 170.516,179.511 172.808,181.205 175.527 C 182.899 178.245,185.798 182.930,187.647 185.938 C 189.497 188.945,191.533 192.250,192.174 193.281 C 192.814 194.313,194.672 197.336,196.302 200.000 C 203.241 211.341,206.580 216.766,210.209 222.601 C 212.329 226.007,214.063 228.854,214.063 228.925 C 214.063 228.997,214.671 230.007,215.416 231.169 C 218.626 236.181,222.813 243.115,222.813 243.419 C 222.813 243.819,132.626 243.895,132.379 243.495 C 132.293 243.355,132.426 242.195,132.675 240.917 C 132.924 239.639,133.280 237.750,133.467 236.719 C 133.870 234.485,134.588 230.705,134.980 228.750 C 135.135 227.977,135.425 226.430,135.624 225.313 C 136.305 221.503,136.899 218.283,137.179 216.875 C 137.614 214.690,138.982 207.337,139.534 204.219 C 139.808 202.672,140.159 200.773,140.314 200.000 C 140.469 199.227,140.733 197.820,140.901 196.875 C 141.166 195.380,142.205 189.773,143.130 184.844 C 143.292 183.984,143.635 182.227,143.894 180.938 C 144.153 179.648,144.719 176.625,145.151 174.219 C 145.584 171.813,146.074 169.141,146.241 168.281 C 147.477 161.923,148.051 158.834,148.765 154.688 C 148.928 153.742,149.272 151.914,149.531 150.625 C 149.790 149.336,150.137 147.508,150.302 146.563 C 150.467 145.617,150.823 143.719,151.092 142.344 C 151.361 140.969,151.654 139.281,151.743 138.594 C 151.833 137.906,152.030 136.852,152.183 136.250 C 152.440 135.235,152.893 132.894,153.726 128.281 C 153.912 127.250,154.352 124.930,154.703 123.125 C 155.054 121.320,155.605 118.367,155.928 116.563 C 156.250 114.758,156.752 112.016,157.043 110.469 C 157.335 108.922,157.680 107.023,157.811 106.250 C 157.942 105.477,158.335 103.438,158.684 101.719 C 159.033 100.000,159.549 97.328,159.831 95.781 C 160.114 94.234,160.471 92.336,160.626 91.563 C 161.003 89.679,161.442 87.301,162.038 83.906 C 162.310 82.359,162.659 80.461,162.813 79.688 C 162.968 78.914,163.240 77.508,163.417 76.563 C 163.593 75.617,163.952 73.832,164.213 72.595 C 164.834 69.650,164.822 69.481,163.920 68.580 L 163.153 67.813 122.812 67.813 L 82.472 67.813 81.725 68.559 C 81.315 68.969,80.897 69.848,80.796 70.512 C 80.696 71.176,80.417 72.703,80.176 73.906 C 79.936 75.109,79.577 77.008,79.380 78.125 C 79.182 79.242,78.900 80.719,78.753 81.406 C 78.606 82.094,78.263 83.852,77.992 85.313 C 77.720 86.773,77.145 89.867,76.714 92.188 C 76.283 94.508,75.785 97.250,75.607 98.281 C 75.429 99.313,75.152 100.859,74.992 101.719 C 73.895 107.588,73.676 108.728,73.434 109.844 C 73.284 110.531,72.930 112.430,72.648 114.063 C 72.365 115.695,71.873 118.367,71.556 120.000 C 71.238 121.633,70.754 124.234,70.480 125.781 C 69.642 130.511,68.619 135.983,68.113 138.438 C 67.954 139.211,67.464 141.813,67.025 144.219 C 66.164 148.932,65.882 150.432,65.178 154.063 C 64.928 155.352,64.558 157.391,64.357 158.594 C 64.156 159.797,63.718 162.117,63.386 163.750 C 63.053 165.383,62.655 167.422,62.502 168.281 C 62.348 169.141,61.994 171.109,61.714 172.656 C 61.435 174.203,61.075 176.207,60.915 177.109 C 60.575 179.033,60.191 181.079,59.524 184.531 C 59.258 185.906,58.911 187.805,58.753 188.750 C 58.402 190.851,58.072 192.612,57.229 196.875 C 56.434 200.898,55.235 207.353,53.602 216.406 C 52.676 221.536,52.396 223.035,51.736 226.406 C 50.868 230.834,49.471 238.338,48.739 242.500 C 48.572 243.445,48.096 245.977,47.681 248.125 C 47.265 250.273,46.694 253.297,46.411 254.844 C 46.129 256.391,45.638 258.992,45.322 260.625 C 45.005 262.258,44.520 264.859,44.245 266.406 C 43.970 267.953,43.606 269.992,43.437 270.938 C 43.268 271.883,42.777 274.484,42.347 276.719 C 41.916 278.953,41.424 281.555,41.254 282.500 C 41.084 283.445,40.591 286.117,40.158 288.438 C 39.726 290.758,39.155 293.852,38.890 295.313 C 38.626 296.773,38.286 298.602,38.135 299.375 C 37.983 300.148,37.708 301.625,37.523 302.656 C 37.338 303.688,36.847 306.289,36.433 308.438 C 36.018 310.586,35.305 314.453,34.847 317.031 C 34.389 319.609,33.896 322.211,33.751 322.813 C 33.440 324.096,32.169 330.673,31.969 332.031 C 31.837 332.925,30.650 339.343,30.004 342.656 C 29.739 344.011,29.095 347.558,27.790 354.844 C 27.606 355.875,27.266 357.633,27.035 358.750 C 25.368 366.819,24.613 366.250,36.993 366.250 C 47.955 366.250,47.676 366.336,48.150 362.800 C 48.703 358.675,48.930 357.335,49.134 357.008 C 49.249 356.824,49.483 355.840,49.653 354.821 C 49.824 353.802,50.188 351.773,50.462 350.313 C 50.736 348.852,51.108 346.813,51.287 345.781 C 51.916 342.164,52.176 340.760,52.678 338.281 C 53.172 335.840,53.396 334.610,54.046 330.781 C 54.221 329.750,54.585 327.852,54.854 326.563 C 55.122 325.273,55.471 323.516,55.627 322.656 C 55.784 321.797,56.133 319.969,56.403 318.594 C 56.673 317.219,57.041 315.180,57.222 314.063 C 57.799 310.486,58.076 308.959,58.580 306.563 C 58.851 305.273,59.202 303.445,59.361 302.500 C 59.519 301.555,59.732 300.359,59.834 299.844 C 60.121 298.387,60.941 294.091,61.295 292.188 C 61.470 291.242,61.758 289.836,61.935 289.063 C 62.111 288.289,62.387 286.813,62.547 285.781 C 63.239 281.332,63.935 277.388,64.368 275.469 C 64.852 273.319,65.195 271.574,65.781 268.281 C 66.056 266.734,66.407 264.906,66.560 264.219 C 66.713 263.531,67.065 261.633,67.342 260.000 C 67.618 258.367,67.966 256.539,68.114 255.938 C 68.262 255.336,68.618 253.508,68.906 251.875 C 69.757 247.042,70.035 245.539,70.319 244.219 C 70.467 243.531,70.816 241.633,71.094 240.000 C 71.372 238.367,71.724 236.469,71.877 235.781 C 72.031 235.094,72.380 233.266,72.655 231.719 C 72.929 230.172,73.292 228.203,73.461 227.344 C 74.205 223.565,74.772 220.490,75.651 215.469 C 75.832 214.438,76.105 213.031,76.258 212.344 C 76.508 211.221,76.766 209.844,77.810 204.063 C 79.190 196.421,79.769 193.294,80.156 191.406 C 80.403 190.203,80.751 188.375,80.931 187.344 C 81.111 186.313,81.395 184.766,81.562 183.906 C 82.216 180.556,82.782 177.576,83.105 175.781 C 83.722 172.351,84.998 165.490,85.314 163.906 C 85.485 163.047,85.980 160.375,86.415 157.969 C 86.849 155.563,87.344 152.891,87.515 152.031 C 87.845 150.365,88.536 146.666,89.092 143.594 C 89.278 142.563,89.633 140.664,89.880 139.375 C 90.749 134.849,91.429 131.188,92.027 127.813 C 92.286 126.352,92.631 124.523,92.794 123.750 C 92.956 122.977,93.320 121.008,93.602 119.375 C 94.443 114.505,93.525 115.000,101.712 115.000 C 105.583 115.000,108.747 115.105,108.744 115.234 C 108.741 115.363,108.522 116.664,108.258 118.125 C 107.476 122.444,107.179 124.112,106.846 126.071 C 106.673 127.090,106.470 128.023,106.394 128.144 C 106.268 128.349,105.914 130.366,105.330 134.219 C 105.199 135.078,104.804 137.188,104.450 138.906 C 104.097 140.625,103.443 144.000,102.998 146.406 C 102.552 148.813,102.050 151.484,101.883 152.344 C 101.716 153.203,101.525 154.328,101.457 154.844 C 101.390 155.359,101.031 157.328,100.659 159.219 C 99.742 163.878,99.502 165.125,98.609 169.844 C 96.865 179.057,96.476 181.167,96.246 182.656 C 96.113 183.516,95.853 184.992,95.667 185.938 C 94.502 191.866,94.308 192.906,93.455 197.813 C 93.261 198.930,92.879 200.898,92.606 202.188 C 92.333 203.477,91.991 205.164,91.846 205.938 C 91.177 209.508,90.535 213.105,90.312 214.531 C 90.177 215.391,89.915 216.867,89.729 217.813 C 89.544 218.758,89.191 220.586,88.945 221.875 C 88.700 223.164,88.204 225.766,87.843 227.656 C 87.482 229.547,87.037 231.938,86.854 232.969 C 86.671 234.000,86.395 235.406,86.241 236.094 C 86.087 236.781,85.873 237.977,85.767 238.750 C 85.660 239.523,85.455 240.648,85.311 241.250 C 85.167 241.852,84.890 243.328,84.696 244.531 C 84.502 245.734,84.215 247.281,84.058 247.969 C 83.901 248.656,83.552 250.484,83.282 252.031 C 83.012 253.578,82.594 255.828,82.354 257.031 C 82.113 258.234,81.760 260.133,81.569 261.250 C 81.201 263.399,80.931 264.859,80.151 268.906 C 79.497 272.300,79.155 274.160,78.742 276.563 C 78.549 277.680,78.199 279.508,77.962 280.625 C 77.725 281.742,77.165 284.695,76.718 287.188 C 76.271 289.680,75.772 292.227,75.609 292.849 C 75.446 293.470,75.313 294.368,75.313 294.844 C 75.312 295.319,75.182 296.217,75.022 296.839 C 74.658 298.257,73.733 303.034,72.656 309.063 C 72.395 310.523,72.030 312.492,71.844 313.438 C 71.198 316.727,70.963 317.986,70.474 320.781 C 70.203 322.328,69.850 324.297,69.690 325.156 C 68.530 331.369,67.765 335.358,67.504 336.563 C 67.242 337.771,66.762 340.389,65.616 346.875 C 65.479 347.648,65.135 349.477,64.850 350.938 C 64.566 352.398,64.191 354.438,64.017 355.469 C 63.262 359.936,63.147 360.525,62.832 361.560 C 62.277 363.385,62.416 364.812,63.223 365.571 L 63.947 366.250 85.645 366.246 C 97.579 366.243,107.666 366.155,108.059 366.050 C 109.060 365.782,109.539 364.680,110.146 361.250 C 110.435 359.617,110.790 357.789,110.935 357.188 C 111.080 356.586,111.554 354.125,111.989 351.719 C 113.083 345.675,113.065 345.768,113.625 342.969 C 113.900 341.594,114.244 339.766,114.389 338.906 C 114.687 337.147,115.072 335.067,115.778 331.406 C 116.043 330.031,116.334 328.414,116.423 327.813 C 116.614 326.535,117.071 324.109,117.661 321.250 C 117.891 320.133,118.243 318.305,118.443 317.188 C 118.642 316.070,118.994 314.172,119.224 312.969 C 119.454 311.766,119.804 309.867,120.001 308.750 C 120.483 306.021,120.784 304.406,121.397 301.250 C 121.681 299.789,122.043 297.891,122.203 297.031 C 122.362 296.172,122.709 294.344,122.974 292.969 C 123.944 287.933,124.692 283.814,125.359 279.844 C 125.532 278.813,125.803 277.537,125.962 277.009 C 126.120 276.481,126.250 275.728,126.250 275.335 C 126.250 274.943,126.446 273.828,126.685 272.858 C 126.924 271.887,127.304 270.001,127.529 268.666 C 127.755 267.331,128.016 266.114,128.110 265.962 C 128.208 265.804,155.934 265.622,192.813 265.537 C 260.048 265.382,258.453 265.414,267.344 264.007 C 273.006 263.110,273.911 262.931,279.688 261.559 C 280.289 261.416,281.766 260.925,282.969 260.467 C 284.172 260.010,286.367 259.375,287.848 259.058 C 292.046 258.156,299.393 255.292,306.273 251.875 C 335.386 237.416,359.047 214.823,373.756 187.439 C 375.645 183.921,376.083 183.034,378.279 178.281 C 390.738 151.316,392.845 119.258,383.859 93.358 C 375.642 69.674,357.777 50.112,335.625 40.545 C 335.023 40.285,333.828 39.757,332.969 39.372 C 331.127 38.546,326.429 36.831,323.125 35.778 C 319.482 34.618,309.688 32.646,303.594 31.846 C 300.167 31.397,38.444 31.081,36.875 31.524 M284.219 271.774 C 282.672 272.029,280.070 272.513,278.438 272.852 C 271.300 274.330,263.008 275.475,256.094 275.935 C 253.859 276.084,250.919 276.497,249.559 276.853 C 248.200 277.209,246.723 277.502,246.278 277.505 C 244.677 277.514,244.446 277.962,245.276 279.448 C 246.036 280.809,250.792 288.589,253.445 292.813 C 254.255 294.102,256.297 297.406,257.984 300.156 C 259.670 302.906,261.552 305.949,262.165 306.918 C 262.779 307.887,263.878 309.645,264.607 310.824 C 265.337 312.004,267.270 315.128,268.904 317.767 C 270.538 320.406,271.875 322.605,271.875 322.655 C 271.875 322.705,273.481 325.327,275.443 328.482 C 279.901 335.651,280.454 336.544,284.121 342.500 C 285.761 345.164,288.836 350.156,290.953 353.594 C 293.070 357.031,295.491 360.969,296.331 362.344 C 298.920 366.577,295.661 366.094,321.596 366.094 C 348.407 366.094,346.782 366.459,343.438 361.190 C 342.578 359.837,341.875 358.668,341.875 358.593 C 341.875 358.518,340.498 356.237,338.815 353.525 C 337.132 350.813,335.068 347.469,334.229 346.094 C 332.069 342.554,328.160 336.181,327.808 335.625 C 327.645 335.367,326.153 332.906,324.493 330.156 C 322.833 327.406,321.108 324.562,320.659 323.835 C 320.211 323.108,318.535 320.366,316.936 317.741 C 315.337 315.116,313.144 311.563,312.064 309.844 C 310.984 308.125,308.442 303.977,306.416 300.625 C 304.389 297.273,302.151 293.592,301.443 292.444 C 300.735 291.296,299.059 288.554,297.719 286.350 C 287.265 269.167,288.958 270.996,284.219 271.774 " stroke="none" fill="#000000" fill-rule="evenodd"></path></g></svg>