<svg id="svg" xmlns="http://www.w3.org/2000/svg" xmlns:xlink="http://www.w3.org/1999/xlink" width="400" height="400" viewBox="0, 0, 400,400"><g id="svgg"><path id="path0" d="M140.570 68.227 C 138.942 68.965,138.736 69.375,135.121 79.063 C 134.512 80.695,133.813 82.493,133.569 83.057 C 133.325 83.622,133.125 84.245,133.125 84.443 C 133.125 84.641,132.860 85.374,132.535 86.073 C 132.211 86.772,131.871 87.625,131.781 87.969 C 131.573 88.758,130.956 90.500,130.453 91.719 C 130.241 92.234,129.758 93.500,129.381 94.531 C 129.003 95.563,128.367 97.180,127.967 98.125 C 127.566 99.070,127.072 100.476,126.868 101.248 C 126.664 102.021,126.209 103.216,125.857 103.904 C 125.505 104.593,124.830 106.352,124.357 107.813 C 123.884 109.273,122.769 112.367,121.879 114.688 C 120.989 117.008,120.004 119.680,119.690 120.625 C 118.804 123.294,117.820 126.031,117.499 126.719 C 116.937 127.923,114.006 135.789,113.830 136.563 C 113.733 136.992,113.481 137.625,113.270 137.969 C 113.059 138.313,112.799 138.974,112.691 139.439 C 112.583 139.904,112.335 140.678,112.139 141.158 C 111.717 142.196,110.857 144.493,109.063 149.375 C 108.336 151.352,107.427 153.813,107.042 154.844 C 106.657 155.875,105.759 158.336,105.046 160.313 C 104.333 162.289,103.610 164.188,103.438 164.531 C 103.266 164.875,102.863 165.930,102.541 166.875 C 101.384 170.281,100.851 171.727,100.582 172.188 C 100.247 172.762,100.220 172.832,99.439 175.156 C 98.431 178.157,98.074 179.158,97.655 180.156 C 97.439 180.672,97.082 181.727,96.860 182.500 C 96.639 183.273,96.212 184.398,95.910 185.000 C 95.608 185.602,94.777 187.781,94.063 189.844 C 93.350 191.906,92.586 194.016,92.367 194.531 C 92.148 195.047,91.818 195.891,91.633 196.406 C 90.722 198.949,87.410 207.733,87.155 208.281 C 86.996 208.625,86.734 209.328,86.573 209.844 C 86.413 210.359,85.908 211.766,85.451 212.969 C 84.995 214.172,84.284 216.141,83.871 217.344 C 83.458 218.547,82.910 219.974,82.654 220.516 C 82.397 221.058,82.188 221.669,82.188 221.875 C 82.188 222.081,81.995 222.692,81.760 223.234 C 80.990 225.009,79.737 228.265,79.518 229.063 C 79.400 229.492,78.630 231.602,77.807 233.750 C 76.984 235.898,75.934 238.711,75.474 240.000 C 75.014 241.289,74.103 243.750,73.449 245.469 C 72.794 247.188,72.184 248.875,72.093 249.219 C 72.001 249.563,71.548 250.828,71.084 252.031 C 70.621 253.234,69.900 255.203,69.481 256.406 C 69.062 257.609,68.588 258.875,68.427 259.219 C 68.266 259.563,67.285 262.164,66.246 265.000 C 65.208 267.836,63.889 271.352,63.315 272.813 C 62.741 274.273,62.127 275.961,61.950 276.563 C 61.773 277.164,61.249 278.641,60.785 279.844 C 59.090 284.242,58.396 286.117,58.078 287.165 C 57.742 288.272,55.088 294.125,54.171 295.781 C 53.886 296.297,53.162 297.633,52.562 298.750 C 51.963 299.867,51.141 301.179,50.736 301.665 C 50.331 302.150,50.000 302.702,50.000 302.890 C 50.000 304.411,39.904 313.740,38.246 313.752 C 38.094 313.753,37.613 313.939,37.179 314.166 C 35.969 314.797,35.050 314.994,32.500 315.169 C 27.126 315.535,26.267 315.676,25.271 316.352 C 22.970 317.913,22.802 323.119,24.988 325.078 L 25.947 325.938 59.025 325.938 L 92.103 325.938 93.005 325.245 C 94.349 324.213,94.365 324.159,94.370 320.725 C 94.377 315.974,93.922 315.648,86.793 315.301 C 81.581 315.047,80.788 314.900,78.532 313.779 C 76.964 312.999,74.207 310.427,73.926 309.482 C 73.816 309.111,73.521 308.729,73.269 308.632 C 73.018 308.536,72.808 308.066,72.801 307.588 C 72.795 307.110,72.589 306.367,72.344 305.938 C 71.703 304.817,71.703 297.891,72.344 296.358 C 72.602 295.741,72.813 294.405,72.813 293.390 C 72.812 292.063,72.940 291.494,73.266 291.369 C 73.530 291.268,73.797 290.585,73.905 289.738 C 74.006 288.937,74.273 287.859,74.498 287.344 C 74.722 286.828,75.227 285.352,75.620 284.063 C 76.012 282.773,76.525 281.345,76.760 280.889 C 76.995 280.433,77.187 279.712,77.187 279.287 C 77.187 278.862,77.395 278.342,77.648 278.132 C 77.901 277.922,78.202 277.236,78.317 276.609 C 78.432 275.982,78.717 275.191,78.951 274.852 C 79.184 274.513,79.375 273.924,79.375 273.543 C 79.375 273.161,79.496 272.774,79.645 272.683 C 79.793 272.591,80.102 271.845,80.331 271.024 C 80.560 270.203,80.929 269.180,81.153 268.750 C 81.376 268.320,81.560 267.713,81.561 267.400 C 81.562 267.086,81.773 266.619,82.031 266.362 C 82.289 266.104,82.500 265.584,82.500 265.207 C 82.500 264.830,82.781 263.997,83.125 263.356 C 83.469 262.715,83.750 261.846,83.750 261.426 C 83.750 261.006,83.868 260.589,84.013 260.500 C 84.157 260.410,84.672 259.101,85.158 257.591 C 85.643 256.080,86.228 254.566,86.458 254.227 C 86.687 253.888,86.875 253.239,86.875 252.785 C 86.875 252.331,87.156 251.602,87.500 251.165 C 87.844 250.728,88.125 250.014,88.125 249.579 C 88.125 249.143,88.266 248.700,88.437 248.594 C 88.609 248.488,88.751 248.093,88.751 247.716 C 88.752 247.339,89.033 246.571,89.376 246.008 C 89.719 245.445,90.000 244.503,90.000 243.914 C 90.000 243.278,90.194 242.735,90.479 242.576 C 90.742 242.428,91.044 241.753,91.151 241.076 C 91.258 240.398,91.522 239.738,91.739 239.609 C 91.955 239.480,92.228 238.813,92.344 238.126 C 92.459 237.440,92.683 236.799,92.840 236.702 C 92.997 236.605,93.125 236.186,93.125 235.770 C 93.125 235.355,93.406 234.555,93.749 233.992 C 94.092 233.429,94.373 232.569,94.374 232.081 C 94.374 231.592,94.656 230.835,95.000 230.398 C 95.344 229.961,95.625 229.371,95.625 229.086 C 95.625 228.802,95.906 228.018,96.250 227.344 C 96.594 226.670,96.875 225.804,96.875 225.421 C 96.875 225.038,97.016 224.637,97.188 224.531 C 97.359 224.425,97.500 223.869,97.500 223.296 C 97.500 222.676,97.683 222.184,97.952 222.081 C 98.200 221.986,98.499 221.373,98.616 220.720 C 98.733 220.066,99.007 219.320,99.224 219.063 C 99.442 218.805,99.716 218.004,99.834 217.284 C 99.952 216.563,100.249 215.808,100.493 215.605 C 100.738 215.402,100.938 214.778,100.938 214.219 C 100.938 213.659,101.145 213.030,101.398 212.819 C 101.651 212.609,101.948 211.958,102.058 211.371 C 102.168 210.785,102.371 210.236,102.508 210.151 C 102.646 210.066,102.853 209.435,102.969 208.748 L 103.180 207.500 165.813 207.500 C 215.343 207.500,228.590 207.582,229.135 207.891 C 229.514 208.105,230.561 208.809,231.461 209.453 C 232.362 210.098,233.210 210.634,233.346 210.646 C 233.482 210.657,234.438 211.292,235.469 212.056 C 236.500 212.820,237.631 213.570,237.982 213.721 C 238.332 213.873,238.807 214.223,239.035 214.499 C 239.264 214.774,239.569 215.000,239.712 215.000 C 239.855 215.000,240.301 215.316,240.704 215.703 C 241.435 216.404,242.926 217.643,245.000 219.272 C 247.697 221.390,253.634 227.679,256.013 230.939 C 256.827 232.055,258.198 233.925,259.059 235.095 C 259.921 236.264,260.625 237.339,260.625 237.483 C 260.625 237.834,263.916 243.149,264.522 243.776 C 264.785 244.048,265.008 244.470,265.019 244.714 C 265.029 244.957,265.592 246.141,266.270 247.344 C 266.948 248.547,267.658 249.883,267.848 250.313 C 268.037 250.742,268.395 251.445,268.642 251.875 C 268.890 252.305,269.365 253.219,269.698 253.906 C 270.032 254.594,270.447 255.367,270.621 255.625 C 270.795 255.883,271.088 256.445,271.271 256.875 C 271.455 257.305,272.225 258.781,272.983 260.156 C 273.741 261.531,274.680 263.289,275.071 264.063 C 275.462 264.836,275.871 265.539,275.981 265.625 C 276.090 265.711,276.404 266.273,276.677 266.875 C 276.951 267.477,277.313 268.180,277.482 268.438 C 277.650 268.695,278.640 270.664,279.681 272.813 C 280.722 274.961,281.693 276.930,281.838 277.188 C 281.984 277.445,282.494 278.500,282.972 279.531 C 283.450 280.563,284.172 281.854,284.576 282.401 C 284.981 282.948,285.313 283.665,285.313 283.993 C 285.312 284.322,285.594 284.845,285.937 285.156 C 286.281 285.467,286.565 285.946,286.568 286.220 C 286.571 286.494,286.993 287.338,287.506 288.094 C 288.018 288.850,288.438 289.633,288.438 289.834 C 288.438 290.035,289.000 290.954,289.688 291.875 C 290.375 292.796,290.938 293.663,290.938 293.801 C 290.937 294.116,293.863 298.448,295.758 300.940 C 296.544 301.974,297.188 302.909,297.188 303.018 C 297.188 303.652,306.437 313.359,307.861 314.219 C 308.146 314.391,310.079 315.691,312.158 317.109 C 314.237 318.527,316.092 319.688,316.280 319.688 C 316.468 319.688,317.352 320.088,318.244 320.578 C 319.136 321.067,320.408 321.570,321.072 321.694 C 321.735 321.818,322.478 322.121,322.723 322.366 C 322.969 322.612,323.652 322.813,324.241 322.813 C 324.830 322.813,325.313 322.939,325.313 323.094 C 325.313 323.472,327.060 324.063,328.176 324.063 C 328.668 324.062,329.315 324.192,329.614 324.350 C 329.912 324.508,331.422 324.802,332.969 325.002 C 334.516 325.203,336.456 325.495,337.281 325.652 C 340.573 326.279,375.048 326.001,376.133 325.340 C 377.614 324.437,378.932 319.286,377.853 318.619 C 377.703 318.526,377.497 318.032,377.395 317.521 C 377.159 316.344,376.294 315.780,373.746 315.144 C 372.631 314.865,371.147 314.367,370.448 314.037 C 369.749 313.707,369.040 313.437,368.871 313.437 C 368.703 313.437,367.539 312.805,366.284 312.031 C 365.030 311.258,363.941 310.625,363.864 310.625 C 363.053 310.625,355.296 304.918,352.795 302.481 C 350.487 300.233,345.579 295.790,345.278 295.677 C 345.125 295.620,345.000 295.381,345.000 295.146 C 345.000 294.911,344.803 294.606,344.561 294.469 C 344.320 294.331,343.248 293.164,342.178 291.875 C 341.109 290.586,339.619 288.873,338.867 288.069 C 338.115 287.265,337.498 286.492,337.496 286.351 C 337.493 286.209,336.931 285.472,336.246 284.713 C 335.561 283.953,334.998 283.250,334.995 283.150 C 334.992 283.050,334.359 282.297,333.588 281.475 C 332.818 280.654,332.188 279.920,332.188 279.844 C 332.188 279.769,331.168 278.375,329.922 276.746 C 328.676 275.118,326.672 272.440,325.469 270.795 C 324.266 269.150,322.616 266.927,321.803 265.855 C 320.990 264.783,320.322 263.786,320.319 263.639 C 320.315 263.492,319.959 262.929,319.527 262.389 C 318.372 260.946,318.348 260.911,317.336 259.297 C 316.825 258.481,316.301 257.813,316.172 257.813 C 316.043 257.813,315.938 257.668,315.938 257.491 C 315.938 257.314,315.374 256.435,314.685 255.538 C 312.946 253.273,313.018 253.377,312.525 252.422 C 312.281 251.949,311.965 251.563,311.822 251.563 C 311.679 251.563,311.563 251.412,311.563 251.229 C 311.563 250.866,309.989 248.658,309.609 248.490 C 309.480 248.432,309.375 248.257,309.375 248.100 C 309.375 247.943,308.707 246.857,307.891 245.686 C 307.074 244.515,306.266 243.337,306.094 243.069 C 305.191 241.657,302.970 238.603,301.135 236.250 C 292.204 224.797,284.955 218.108,272.256 209.604 L 267.481 206.406 269.443 206.204 C 270.523 206.093,272.039 205.852,272.813 205.668 C 273.586 205.485,275.133 205.185,276.250 205.002 C 280.057 204.379,281.273 204.097,282.247 203.611 C 282.783 203.344,283.732 203.125,284.356 203.125 C 284.980 203.125,286.291 202.844,287.269 202.500 C 288.247 202.156,289.322 201.875,289.657 201.875 C 289.993 201.875,290.479 201.664,290.737 201.406 C 290.994 201.148,291.672 200.937,292.243 200.936 C 292.814 200.935,293.684 200.724,294.176 200.467 C 294.669 200.210,295.233 200.000,295.431 200.000 C 295.629 200.000,296.315 199.719,296.957 199.375 C 297.598 199.031,298.373 198.750,298.679 198.750 C 298.985 198.750,299.513 198.557,299.852 198.321 C 300.191 198.085,300.916 197.795,301.463 197.676 C 302.009 197.557,302.624 197.258,302.829 197.011 C 303.034 196.764,303.457 196.563,303.770 196.563 C 304.453 196.563,309.570 194.193,309.844 193.750 C 309.950 193.578,310.300 193.438,310.621 193.438 C 310.942 193.438,311.430 193.212,311.706 192.937 C 311.981 192.662,312.870 192.086,313.681 191.657 C 314.492 191.228,315.553 190.664,316.039 190.404 C 316.524 190.144,316.996 189.736,317.088 189.497 C 317.179 189.258,317.450 189.062,317.690 189.063 C 317.929 189.063,318.383 188.816,318.699 188.516 C 319.015 188.215,319.489 187.828,319.751 187.656 C 324.798 184.355,331.887 177.033,335.331 171.563 C 336.915 169.048,337.029 168.842,338.466 165.938 C 339.189 164.477,339.970 162.908,340.203 162.452 C 340.435 161.996,340.626 161.363,340.626 161.046 C 340.627 160.728,340.908 160.008,341.251 159.446 C 341.594 158.883,341.875 158.032,341.875 157.555 C 341.875 157.078,341.992 156.554,342.135 156.391 C 342.505 155.967,343.125 153.668,343.125 152.717 C 343.125 152.274,343.266 151.825,343.438 151.719 C 343.609 151.613,343.753 150.585,343.757 149.435 C 343.761 148.031,343.967 146.896,344.382 145.981 C 345.236 144.098,345.326 129.479,344.495 127.568 C 344.216 126.929,343.878 125.070,343.742 123.438 C 343.452 119.965,343.116 118.330,342.397 116.887 C 342.110 116.312,341.874 115.406,341.873 114.874 C 341.872 114.342,341.591 113.484,341.250 112.969 C 340.909 112.453,340.628 111.640,340.627 111.162 C 340.626 110.679,340.417 110.213,340.156 110.113 C 339.898 110.014,339.688 109.684,339.688 109.379 C 339.688 108.767,338.425 105.991,337.482 104.531 C 337.149 104.016,336.722 103.207,336.533 102.734 C 336.344 102.262,336.059 101.875,335.899 101.875 C 335.740 101.875,335.478 101.530,335.318 101.108 C 334.671 99.406,329.696 93.355,326.589 90.491 C 325.830 89.791,324.831 88.867,324.368 88.438 C 322.097 86.327,317.330 82.992,314.531 81.557 C 312.813 80.675,311.195 79.779,310.938 79.566 C 310.320 79.055,305.263 76.767,303.289 76.106 C 302.434 75.819,301.584 75.460,301.402 75.309 C 301.219 75.157,300.512 74.894,299.831 74.725 C 299.151 74.556,297.961 74.201,297.188 73.937 C 293.624 72.719,289.706 71.611,288.281 71.417 C 287.422 71.300,286.116 71.004,285.380 70.758 C 284.643 70.513,283.365 70.313,282.539 70.313 C 281.713 70.313,280.347 70.098,279.503 69.837 C 278.659 69.575,276.030 69.225,273.660 69.059 C 271.290 68.892,269.034 68.676,268.646 68.579 C 265.689 67.837,169.718 67.570,167.973 68.299 C 166.204 69.039,165.628 70.305,165.626 73.457 C 165.625 77.221,166.254 77.839,170.391 78.139 C 171.981 78.255,173.677 78.510,174.161 78.706 C 174.645 78.902,175.368 79.063,175.767 79.063 C 177.290 79.063,180.157 80.713,182.061 82.685 C 183.381 84.052,186.250 89.292,186.250 90.336 C 186.250 90.660,186.457 91.455,186.710 92.103 C 187.592 94.365,187.900 99.641,188.102 115.938 L 188.305 132.344 189.955 135.781 C 190.864 137.672,191.878 139.781,192.210 140.469 C 192.542 141.156,192.814 141.894,192.813 142.109 C 192.813 142.323,193.234 143.391,193.750 144.483 C 194.266 145.574,194.688 146.701,194.688 146.986 C 194.688 147.272,194.969 147.747,195.313 148.041 C 195.656 148.336,195.938 148.800,195.938 149.073 C 195.938 149.347,196.289 150.299,196.719 151.190 C 197.148 152.081,197.500 152.902,197.500 153.014 C 197.500 153.127,197.869 154.006,198.320 154.969 C 198.771 155.931,199.393 157.281,199.701 157.969 C 200.009 158.656,200.695 160.174,201.225 161.342 C 201.754 162.510,202.188 163.588,202.188 163.739 C 202.188 163.889,202.392 164.410,202.641 164.897 C 203.341 166.263,204.375 168.612,204.375 168.837 C 204.375 168.948,204.867 170.076,205.469 171.343 C 206.070 172.610,206.563 173.802,206.563 173.992 C 206.563 174.182,207.054 175.295,207.655 176.465 C 208.255 177.636,208.748 178.699,208.748 178.827 C 208.749 178.956,209.188 180.010,209.722 181.171 C 210.257 182.332,210.967 183.914,211.301 184.688 C 211.634 185.461,212.168 186.656,212.487 187.344 C 212.807 188.031,213.153 188.978,213.257 189.447 C 213.361 189.916,213.861 190.725,214.369 191.244 L 215.291 192.188 221.729 192.188 C 225.742 192.187,228.404 192.060,228.797 191.850 C 230.375 191.005,230.313 193.339,230.313 135.323 L 230.313 81.250 242.533 81.250 C 251.944 81.250,255.159 81.350,256.517 81.686 C 257.488 81.927,259.997 82.200,262.094 82.295 C 264.631 82.410,266.219 82.630,266.844 82.953 C 267.359 83.219,268.105 83.440,268.500 83.444 C 269.118 83.450,270.832 84.002,274.442 85.359 C 275.761 85.855,279.903 88.043,281.719 89.204 C 282.633 89.788,286.251 92.744,286.563 93.162 C 286.648 93.277,287.633 94.381,288.750 95.616 C 290.588 97.647,294.063 102.767,294.063 103.445 C 294.063 103.596,294.242 103.831,294.461 103.969 C 294.879 104.231,297.180 109.833,297.197 110.631 C 297.203 110.886,297.406 111.356,297.648 111.676 C 297.890 111.996,298.182 113.050,298.296 114.019 C 298.410 114.988,298.691 116.079,298.919 116.442 C 299.985 118.139,301.307 134.238,300.892 140.469 C 300.436 147.321,299.488 154.277,298.881 155.223 C 298.637 155.604,298.434 156.237,298.431 156.630 C 298.427 157.022,298.146 157.957,297.806 158.706 C 297.466 159.455,297.187 160.376,297.188 160.753 C 297.188 161.129,297.069 161.571,296.924 161.734 C 296.779 161.898,296.332 162.875,295.930 163.906 C 295.529 164.938,294.955 166.104,294.653 166.499 C 294.352 166.894,294.019 167.597,293.912 168.062 C 293.667 169.137,292.617 170.421,292.196 170.162 C 292.004 170.043,291.875 170.332,291.875 170.881 C 291.875 171.386,291.664 171.974,291.406 172.188 C 291.148 172.401,290.938 172.748,290.938 172.959 C 290.937 173.169,290.656 173.595,290.312 173.906 C 289.969 174.217,289.687 174.593,289.688 174.740 C 289.688 174.888,289.020 175.723,288.203 176.596 C 284.176 180.903,282.137 182.813,281.565 182.813 C 281.392 182.813,281.250 182.946,281.250 183.108 C 281.250 183.658,278.099 185.626,273.361 188.036 C 267.274 191.132,261.990 192.596,251.563 194.078 C 249.373 194.389,213.394 194.443,212.947 194.136 C 212.596 193.894,211.447 191.569,211.111 190.419 C 211.002 190.048,210.708 189.573,210.457 189.365 C 210.205 189.157,210.000 188.722,210.000 188.400 C 210.000 187.820,208.674 184.673,207.488 182.438 C 207.151 181.802,206.875 181.077,206.875 180.826 C 206.875 180.575,206.533 179.689,206.115 178.857 C 204.671 175.979,203.750 173.844,203.750 173.371 C 203.750 173.110,203.469 172.539,203.125 172.102 C 202.781 171.665,202.500 171.165,202.500 170.992 C 202.500 170.818,202.293 170.278,202.039 169.791 C 201.786 169.304,201.346 168.344,201.061 167.656 C 199.959 165.001,199.066 162.957,197.843 160.292 C 197.482 159.507,197.188 158.755,197.188 158.620 C 197.188 158.370,197.079 158.119,195.222 154.063 C 194.631 152.773,194.042 151.367,193.912 150.938 C 193.782 150.508,193.502 149.945,193.288 149.688 C 193.075 149.430,192.823 148.938,192.729 148.594 C 192.441 147.543,190.434 142.867,190.086 142.436 C 189.907 142.214,189.664 141.584,189.547 141.037 C 189.430 140.491,189.133 139.876,188.886 139.671 C 188.639 139.466,188.438 139.123,188.438 138.908 C 188.438 138.558,188.050 137.566,186.728 134.531 C 186.503 134.016,186.224 133.277,186.107 132.891 C 185.991 132.504,185.764 132.188,185.604 132.188 C 185.444 132.188,185.313 131.961,185.313 131.683 C 185.313 131.406,185.050 130.668,184.729 130.043 C 184.408 129.418,183.696 127.781,183.147 126.406 C 182.598 125.031,181.877 123.309,181.543 122.578 C 181.210 121.848,180.676 120.652,180.356 119.922 C 180.036 119.191,179.333 117.674,178.793 116.550 C 178.254 115.426,177.813 114.329,177.813 114.112 C 177.813 113.895,177.548 113.198,177.225 112.562 C 176.902 111.926,176.421 110.914,176.155 110.313 C 175.890 109.711,175.170 108.116,174.555 106.769 C 173.940 105.422,173.438 104.152,173.438 103.948 C 173.438 103.744,173.245 103.299,173.009 102.960 C 172.773 102.621,172.483 101.896,172.364 101.350 C 172.245 100.803,171.945 100.188,171.699 99.983 C 171.452 99.779,171.250 99.404,171.250 99.151 C 171.250 98.897,171.056 98.317,170.818 97.861 C 170.581 97.405,170.072 96.258,169.687 95.313 C 169.302 94.367,168.723 93.016,168.400 92.310 C 168.077 91.603,167.813 90.882,167.813 90.707 C 167.813 90.532,167.602 90.214,167.344 90.000 C 167.086 89.786,166.875 89.358,166.875 89.050 C 166.875 88.741,166.539 87.809,166.128 86.979 C 164.673 84.036,163.788 82.021,163.583 81.185 C 163.469 80.719,163.179 80.175,162.938 79.975 C 162.697 79.775,162.500 79.410,162.500 79.163 C 162.500 78.759,162.102 77.761,160.759 74.797 C 160.513 74.255,160.313 73.674,160.313 73.507 C 160.313 73.339,160.102 73.026,159.844 72.813 C 159.586 72.599,159.375 72.213,159.375 71.955 C 159.375 70.996,157.655 68.779,156.563 68.328 C 155.114 67.732,141.849 67.648,140.570 68.227 M136.682 120.734 C 137.132 121.654,137.500 122.550,137.500 122.727 C 137.500 122.903,137.856 123.873,138.292 124.883 C 138.727 125.893,139.195 127.000,139.331 127.344 C 139.468 127.688,139.866 128.602,140.218 129.375 C 140.569 130.148,141.248 131.766,141.727 132.969 C 142.206 134.172,142.917 135.859,143.307 136.719 C 143.697 137.578,144.732 140.039,145.607 142.188 C 146.482 144.336,147.407 146.492,147.662 146.978 C 147.917 147.465,148.125 148.009,148.125 148.186 C 148.125 148.364,148.617 149.561,149.219 150.845 C 149.820 152.130,150.313 153.264,150.313 153.367 C 150.313 153.469,150.608 154.195,150.970 154.979 C 152.296 157.857,152.774 158.958,153.761 161.406 C 154.315 162.781,155.015 164.469,155.316 165.156 C 155.616 165.844,155.949 166.617,156.054 166.875 C 156.160 167.133,156.372 167.555,156.525 167.813 C 156.811 168.293,158.266 171.913,158.849 173.594 C 159.266 174.798,159.973 176.435,161.376 179.444 C 161.994 180.771,162.500 182.114,162.500 182.429 C 162.500 182.743,162.628 183.134,162.784 183.297 C 162.939 183.460,163.445 184.508,163.907 185.625 C 165.066 188.428,165.594 189.661,166.178 190.938 C 166.630 191.922,167.483 194.100,167.495 194.297 C 167.498 194.340,154.211 194.375,137.969 194.375 L 108.438 194.375 108.438 193.476 C 108.438 192.981,108.639 192.409,108.886 192.204 C 109.133 191.999,109.431 191.392,109.550 190.854 C 109.668 190.316,110.169 188.884,110.663 187.672 C 111.157 186.460,111.646 185.017,111.751 184.464 C 111.855 183.912,112.137 183.297,112.376 183.098 C 112.616 182.899,112.813 182.349,112.813 181.875 C 112.813 181.401,113.012 180.848,113.257 180.645 C 113.501 180.442,113.795 179.723,113.909 179.046 C 114.023 178.369,114.245 177.736,114.402 177.639 C 114.559 177.542,114.688 177.119,114.688 176.699 C 114.688 176.279,114.969 175.410,115.313 174.769 C 115.656 174.128,115.938 173.236,115.938 172.787 C 115.938 172.339,116.219 171.717,116.563 171.406 C 116.950 171.055,117.188 170.444,117.188 169.795 C 117.188 169.220,117.316 168.750,117.473 168.750 C 117.825 168.750,119.063 165.002,119.063 163.935 C 119.063 163.506,119.278 163.036,119.541 162.888 C 119.804 162.741,120.107 162.066,120.214 161.388 C 120.321 160.711,120.668 159.821,120.985 159.411 C 121.303 159.001,121.563 158.360,121.563 157.986 C 121.563 157.613,121.769 157.034,122.021 156.700 C 122.274 156.367,122.485 155.828,122.490 155.503 C 122.496 155.178,122.768 154.334,123.096 153.628 C 124.420 150.778,124.688 150.022,124.688 149.132 C 124.688 148.620,124.881 148.041,125.117 147.845 C 125.354 147.649,125.634 146.947,125.739 146.285 C 125.845 145.623,126.144 144.905,126.403 144.690 C 126.663 144.475,126.875 143.897,126.875 143.407 C 126.875 142.916,127.156 142.055,127.499 141.492 C 127.842 140.929,128.128 140.188,128.134 139.844 C 128.140 139.500,128.351 138.946,128.604 138.612 C 128.856 138.279,129.067 137.786,129.073 137.518 C 129.079 137.250,129.355 136.469,129.688 135.781 C 130.020 135.094,130.296 134.223,130.302 133.847 C 130.308 133.470,130.442 133.082,130.600 132.984 C 130.759 132.886,131.263 131.647,131.722 130.231 C 132.180 128.815,132.754 127.213,132.997 126.672 C 133.239 126.130,133.438 125.409,133.438 125.069 C 133.438 124.729,133.634 124.289,133.874 124.090 C 134.113 123.891,134.400 123.246,134.510 122.658 C 134.621 122.070,134.916 121.196,135.166 120.716 C 135.416 120.236,135.622 119.668,135.623 119.453 C 135.626 118.761,135.847 119.028,136.682 120.734 M179.273 210.928 C 176.521 211.460,175.778 214.248,177.436 217.820 C 177.953 218.933,178.472 220.169,178.590 220.567 C 178.708 220.965,179.425 222.627,180.184 224.261 C 180.942 225.895,181.563 227.384,181.563 227.570 C 181.563 227.756,181.984 228.801,182.500 229.892 C 183.016 230.984,183.438 232.013,183.438 232.180 C 183.438 232.347,183.920 233.474,184.509 234.685 C 185.098 235.896,185.752 237.411,185.961 238.053 C 186.171 238.694,186.603 239.709,186.921 240.308 C 187.239 240.907,187.504 241.610,187.510 241.870 C 187.515 242.131,187.726 242.617,187.979 242.950 C 188.231 243.284,188.438 243.733,188.438 243.947 C 188.438 244.162,189.141 245.817,190.000 247.626 C 190.859 249.434,191.563 251.095,191.564 251.316 C 191.564 251.538,191.846 252.179,192.189 252.742 C 192.532 253.305,192.813 253.975,192.813 254.231 C 192.813 254.487,192.931 254.940,193.076 255.239 C 194.399 257.967,194.689 258.661,194.688 259.098 C 194.688 259.376,194.969 259.961,195.313 260.398 C 195.656 260.835,195.938 261.432,195.938 261.725 C 195.938 262.019,196.200 262.770,196.521 263.395 C 197.189 264.695,198.922 268.887,199.208 269.894 C 199.313 270.265,199.605 270.739,199.856 270.948 C 200.107 271.156,200.313 271.559,200.313 271.843 C 200.313 272.127,200.730 273.200,201.240 274.227 C 201.750 275.254,202.172 276.266,202.178 276.476 C 202.187 276.829,202.532 277.663,204.105 281.128 C 204.425 281.834,204.688 282.548,204.688 282.713 C 204.688 282.879,205.109 283.885,205.625 284.950 C 206.141 286.014,206.563 287.085,206.563 287.330 C 206.563 287.575,206.692 287.856,206.851 287.954 C 207.010 288.052,207.373 288.834,207.657 289.691 C 207.942 290.549,208.273 291.250,208.392 291.250 C 208.620 291.250,209.230 293.331,209.647 295.530 C 209.784 296.252,210.054 297.033,210.248 297.266 C 211.427 298.687,211.535 307.507,210.404 310.000 C 208.691 313.778,205.931 315.094,199.214 315.339 C 193.652 315.541,192.785 315.785,191.652 317.468 C 190.204 319.619,191.011 324.519,192.967 325.447 C 194.478 326.164,286.059 326.180,287.006 325.464 C 288.351 324.446,288.746 323.383,288.748 320.776 C 288.752 316.429,287.769 315.596,281.964 315.016 C 274.495 314.269,270.445 312.183,265.156 306.358 C 263.953 305.033,262.723 303.693,262.422 303.381 C 262.121 303.068,261.875 302.726,261.875 302.620 C 261.875 302.514,261.205 301.565,260.386 300.511 C 259.566 299.456,258.722 298.242,258.508 297.813 C 258.295 297.383,257.833 296.557,257.482 295.976 C 256.492 294.340,253.125 287.761,253.125 287.463 C 253.125 287.317,252.703 286.327,252.188 285.262 C 251.672 284.198,251.250 283.128,251.250 282.885 C 251.250 282.641,250.969 282.085,250.625 281.648 C 250.281 281.211,250.000 280.665,250.000 280.434 C 250.000 280.204,249.719 279.555,249.376 278.992 C 249.033 278.429,248.752 277.793,248.751 277.579 C 248.751 277.365,248.328 276.296,247.813 275.205 C 247.297 274.114,246.875 273.005,246.875 272.742 C 246.875 272.479,246.678 272.100,246.437 271.900 C 246.196 271.700,245.907 271.156,245.794 270.690 C 245.594 269.866,244.300 266.956,243.097 264.626 C 242.769 263.990,242.500 263.199,242.500 262.867 C 242.500 262.535,242.304 262.101,242.064 261.902 C 241.824 261.703,241.539 261.067,241.431 260.489 C 241.322 259.911,241.026 259.266,240.773 259.056 C 240.520 258.845,240.313 258.466,240.313 258.213 C 240.313 257.960,240.121 257.379,239.886 256.923 C 239.004 255.208,238.125 253.093,238.125 252.686 C 238.125 252.454,237.929 252.101,237.689 251.902 C 237.449 251.703,237.160 251.046,237.047 250.441 C 236.933 249.837,236.637 249.264,236.389 249.169 C 236.141 249.074,235.938 248.690,235.938 248.317 C 235.938 247.944,235.754 247.362,235.530 247.023 C 235.306 246.684,234.731 245.388,234.253 244.142 C 233.775 242.897,233.255 241.799,233.098 241.702 C 232.941 241.605,232.813 241.282,232.813 240.985 C 232.813 240.688,232.531 239.893,232.188 239.219 C 231.844 238.545,231.563 237.879,231.563 237.740 C 231.563 237.602,230.859 236.030,230.000 234.249 C 229.141 232.467,228.438 230.791,228.438 230.523 C 228.438 230.256,228.314 229.961,228.163 229.868 C 228.013 229.774,227.575 228.887,227.191 227.896 C 226.807 226.905,226.207 225.461,225.857 224.688 C 225.508 223.914,224.980 222.719,224.684 222.031 C 224.389 221.344,223.928 220.289,223.659 219.688 C 223.391 219.086,222.941 218.031,222.661 217.344 C 222.380 216.656,221.877 215.574,221.544 214.938 C 221.210 214.302,220.938 213.571,220.938 213.314 C 220.938 212.293,219.403 211.142,217.723 210.903 C 215.611 210.602,180.842 210.625,179.273 210.928 " stroke="none" fill="#000000" fill-rule="evenodd"></path></g></svg>