<svg viewBox="0 0 256 256" height="24px" width="24px" fill="#EFEFEF">
<path d="M234.2,67l-43.4-2.1l-2.6-28.3c-0.5-5.9-5.9-10.1-12.1-9.6L20.2,39.7C14,40.2,9.6,45.2,10,51.1l11.2,124.2c0.5,5.9,5.9,10.1,12.1,9.6l7.9-0.6l-1.3,24.1c-0.3,6.6,4.8,12,11.8,12.4l173.9,8.3c7,0.3,12.7-4.5,13.1-11.2L246,79.2C246.3,72.7,241.1,67.3,234.2,67z M47.2,69.8l-3.7,71l-9.2,13L25.9,60c0-0.1,0-0.2,0-0.3c0-0.1,0-0.2,0-0.3c0.3-2.6,2.3-4.7,5-5l137.5-11.3c2.7-0.2,5.1,1.6,5.5,4.2c0,0.1,0.2,0.1,0.2,0.2c0,0,0.2,0.1,0.2,0.2l1.4,16.2L60.3,58.6C53.3,58.3,47.5,63.2,47.2,69.8z M223.2,194.5l-24.6-29.1l-14.5-17.2c-1.3-1.5-3.3-2.8-5.6-2.9c-2.3-0.1-4,0.8-5.9,2.2l-8.6,6.3c-1.9,1.1-3.3,1.9-5.2,1.7c-1.9-0.1-3.6-0.8-4.8-2c-0.4-0.4-1.2-1.2-1.9-1.8l-22.5-25.7c-1.6-2-4.3-3.4-7.3-3.5c-3-0.2-5.9,1.1-7.8,2.9l-53.2,57.3l-3.6,3.9l0.2-3.6l3.6-67.9l1.7-33.1c0-0.1,0-0.2,0-0.3c0-0.1,0-0.2,0-0.3c0.7-2.8,3.3-4.9,6.3-4.7L177,81.8l15.1,0.7l30.7,1.5c3.1,0.2,5.4,2.5,5.5,5.4c0,0.1,0.2,0.2,0.2,0.3c0,0.1,0.2,0.2,0.2,0.3L223.2,194.5z"/><path d="M189.7,131.3c10.2,0,18.5-8.3,18.5-18.5s-8.3-18.5-18.5-18.5c-10.2,0-18.5,8.3-18.5,18.5S179.4,131.3,189.7,131.3z"/>
</svg>